<?xml version="1.0" encoding="utf-8" standalone="no"?>
<!DOCTYPE svg PUBLIC "-//W3C//DTD SVG 1.1//EN"
  "http://www.w3.org/Graphics/SVG/1.1/DTD/svg11.dtd">
<!-- Created with matplotlib (https://matplotlib.org/) -->
<svg height="709.92pt" version="1.1" viewBox="0 0 1334.16 709.92" width="1334.16pt" xmlns="http://www.w3.org/2000/svg" xmlns:xlink="http://www.w3.org/1999/xlink">
 <metadata>
  <rdf:RDF xmlns:cc="http://creativecommons.org/ns#" xmlns:dc="http://purl.org/dc/elements/1.1/" xmlns:rdf="http://www.w3.org/1999/02/22-rdf-syntax-ns#">
   <cc:Work>
    <dc:type rdf:resource="http://purl.org/dc/dcmitype/StillImage"/>
    <dc:date>2021-11-11T10:27:19.808569</dc:date>
    <dc:format>image/svg+xml</dc:format>
    <dc:creator>
     <cc:Agent>
      <dc:title>Matplotlib v3.3.4, https://matplotlib.org/</dc:title>
     </cc:Agent>
    </dc:creator>
   </cc:Work>
  </rdf:RDF>
 </metadata>
 <defs>
  <style type="text/css">*{stroke-linecap:butt;stroke-linejoin:round;}</style>
 </defs>
 <g id="figure_1">
  <g id="patch_1">
   <path d="M 0 709.92 
L 1334.16 709.92 
L 1334.16 0 
L 0 0 
z
" style="fill:#ffffff;"/>
  </g>
  <g id="patch_2">
   <path d="M 410.4378 631.8288 
L 957.0762 631.8288 
L 957.0762 85.1904 
L 410.4378 85.1904 
z
" style="fill:#ffffff;"/>
  </g>
  <g id="pane3d_1">
   <g id="patch_3">
    <path d="M 451.712769 497.045289 
L 632.230621 345.731646 
L 629.72125 127.510323 
L 440.564688 265.548166 
" style="fill:#f2f2f2;opacity:0.5;stroke:#f2f2f2;stroke-linejoin:miter;"/>
   </g>
  </g>
  <g id="pane3d_2">
   <g id="patch_4">
    <path d="M 632.230621 345.731646 
L 921.897364 429.926332 
L 932.234549 204.188626 
L 629.72125 127.510323 
" style="fill:#e6e6e6;opacity:0.5;stroke:#e6e6e6;stroke-linejoin:miter;"/>
   </g>
  </g>
  <g id="pane3d_3">
   <g id="patch_5">
    <path d="M 451.712769 497.045289 
L 758.773665 597.331377 
L 921.897364 429.926332 
L 632.230621 345.731646 
" style="fill:#ececec;opacity:0.5;stroke:#ececec;stroke-linejoin:miter;"/>
   </g>
  </g>
  <g id="axis3d_1">
   <g id="line2d_1">
    <path d="M 451.712769 497.045289 
L 758.773665 597.331377 
" style="fill:none;stroke:#000000;stroke-linecap:square;stroke-width:0.8;"/>
   </g>
   <g id="Line3DCollection_1">
    <path d="M 470.30757 503.118351 
L 649.844975 350.851443 
L 648.080352 132.16382 
" style="fill:none;stroke:#b0b0b0;stroke-width:0.8;"/>
    <path d="M 505.984045 514.770288 
L 683.613931 360.666745 
L 683.290255 141.088504 
" style="fill:none;stroke:#b0b0b0;stroke-width:0.8;"/>
    <path d="M 542.110827 526.569295 
L 717.773781 370.595665 
L 718.925357 150.120964 
" style="fill:none;stroke:#b0b0b0;stroke-width:0.8;"/>
    <path d="M 578.696495 538.518174 
L 752.331351 380.640186 
L 754.993407 159.263163 
" style="fill:none;stroke:#b0b0b0;stroke-width:0.8;"/>
    <path d="M 615.749848 550.619799 
L 787.293629 390.80234 
L 791.502343 168.517114 
" style="fill:none;stroke:#b0b0b0;stroke-width:0.8;"/>
    <path d="M 653.279911 562.877117 
L 822.667765 401.084205 
L 828.460298 177.884878 
" style="fill:none;stroke:#b0b0b0;stroke-width:0.8;"/>
    <path d="M 691.295944 575.293153 
L 858.46108 411.487909 
L 865.875608 187.368569 
" style="fill:none;stroke:#b0b0b0;stroke-width:0.8;"/>
    <path d="M 729.807448 587.87101 
L 894.68107 422.01563 
L 903.756815 196.970351 
" style="fill:none;stroke:#b0b0b0;stroke-width:0.8;"/>
   </g>
   <g id="xtick_1">
    <g id="line2d_2">
     <path d="M 471.870971 501.792419 
L 467.174058 505.775904 
" style="fill:none;stroke:#000000;stroke-linecap:square;stroke-width:0.8;"/>
    </g>
    <g id="text_1">
     <!-- −1.0 -->
     <g transform="translate(450.651448 526.397578)scale(0.1 -0.1)">
      <defs>
       <path d="M 10.59375 35.5 
L 73.1875 35.5 
L 73.1875 27.203125 
L 10.59375 27.203125 
z
" id="DejaVuSans-8722"/>
       <path d="M 12.40625 8.296875 
L 28.515625 8.296875 
L 28.515625 63.921875 
L 10.984375 60.40625 
L 10.984375 69.390625 
L 28.421875 72.90625 
L 38.28125 72.90625 
L 38.28125 8.296875 
L 54.390625 8.296875 
L 54.390625 0 
L 12.40625 0 
z
" id="DejaVuSans-49"/>
       <path d="M 10.6875 12.40625 
L 21 12.40625 
L 21 0 
L 10.6875 0 
z
" id="DejaVuSans-46"/>
       <path d="M 31.78125 66.40625 
Q 24.171875 66.40625 20.328125 58.90625 
Q 16.5 51.421875 16.5 36.375 
Q 16.5 21.390625 20.328125 13.890625 
Q 24.171875 6.390625 31.78125 6.390625 
Q 39.453125 6.390625 43.28125 13.890625 
Q 47.125 21.390625 47.125 36.375 
Q 47.125 51.421875 43.28125 58.90625 
Q 39.453125 66.40625 31.78125 66.40625 
z
M 31.78125 74.21875 
Q 44.046875 74.21875 50.515625 64.515625 
Q 56.984375 54.828125 56.984375 36.375 
Q 56.984375 17.96875 50.515625 8.265625 
Q 44.046875 -1.421875 31.78125 -1.421875 
Q 19.53125 -1.421875 13.0625 8.265625 
Q 6.59375 17.96875 6.59375 36.375 
Q 6.59375 54.828125 13.0625 64.515625 
Q 19.53125 74.21875 31.78125 74.21875 
z
" id="DejaVuSans-48"/>
      </defs>
      <use xlink:href="#DejaVuSans-8722"/>
      <use x="83.789062" xlink:href="#DejaVuSans-49"/>
      <use x="147.412109" xlink:href="#DejaVuSans-46"/>
      <use x="179.199219" xlink:href="#DejaVuSans-48"/>
     </g>
    </g>
   </g>
   <g id="xtick_2">
    <g id="line2d_3">
     <path d="M 507.531624 513.427679 
L 502.882205 517.461302 
" style="fill:none;stroke:#000000;stroke-linecap:square;stroke-width:0.8;"/>
    </g>
    <g id="text_2">
     <!-- −0.5 -->
     <g transform="translate(486.345553 538.169212)scale(0.1 -0.1)">
      <defs>
       <path d="M 10.796875 72.90625 
L 49.515625 72.90625 
L 49.515625 64.59375 
L 19.828125 64.59375 
L 19.828125 46.734375 
Q 21.96875 47.46875 24.109375 47.828125 
Q 26.265625 48.1875 28.421875 48.1875 
Q 40.625 48.1875 47.75 41.5 
Q 54.890625 34.8125 54.890625 23.390625 
Q 54.890625 11.625 47.5625 5.09375 
Q 40.234375 -1.421875 26.90625 -1.421875 
Q 22.3125 -1.421875 17.546875 -0.640625 
Q 12.796875 0.140625 7.71875 1.703125 
L 7.71875 11.625 
Q 12.109375 9.234375 16.796875 8.0625 
Q 21.484375 6.890625 26.703125 6.890625 
Q 35.15625 6.890625 40.078125 11.328125 
Q 45.015625 15.765625 45.015625 23.390625 
Q 45.015625 31 40.078125 35.4375 
Q 35.15625 39.890625 26.703125 39.890625 
Q 22.75 39.890625 18.8125 39.015625 
Q 14.890625 38.140625 10.796875 36.28125 
z
" id="DejaVuSans-53"/>
      </defs>
      <use xlink:href="#DejaVuSans-8722"/>
      <use x="83.789062" xlink:href="#DejaVuSans-48"/>
      <use x="147.412109" xlink:href="#DejaVuSans-46"/>
      <use x="179.199219" xlink:href="#DejaVuSans-53"/>
     </g>
    </g>
   </g>
   <g id="xtick_3">
    <g id="line2d_4">
     <path d="M 543.642059 525.209692 
L 539.04171 529.294407 
" style="fill:none;stroke:#000000;stroke-linecap:square;stroke-width:0.8;"/>
    </g>
    <g id="text_3">
     <!-- 0.0 -->
     <g transform="translate(526.680855 550.089698)scale(0.1 -0.1)">
      <use xlink:href="#DejaVuSans-48"/>
      <use x="63.623047" xlink:href="#DejaVuSans-46"/>
      <use x="95.410156" xlink:href="#DejaVuSans-48"/>
     </g>
    </g>
   </g>
   <g id="xtick_4">
    <g id="line2d_5">
     <path d="M 580.210838 537.141253 
L 575.661187 541.278036 
" style="fill:none;stroke:#000000;stroke-linecap:square;stroke-width:0.8;"/>
    </g>
    <g id="text_4">
     <!-- 0.5 -->
     <g transform="translate(563.286281 562.161878)scale(0.1 -0.1)">
      <use xlink:href="#DejaVuSans-48"/>
      <use x="63.623047" xlink:href="#DejaVuSans-46"/>
      <use x="95.410156" xlink:href="#DejaVuSans-53"/>
     </g>
    </g>
   </g>
   <g id="xtick_5">
    <g id="line2d_6">
     <path d="M 617.246744 549.225227 
L 612.749468 553.41508 
" style="fill:none;stroke:#000000;stroke-linecap:square;stroke-width:0.8;"/>
    </g>
    <g id="text_5">
     <!-- 1.0 -->
     <g transform="translate(600.360511 574.388666)scale(0.1 -0.1)">
      <use xlink:href="#DejaVuSans-49"/>
      <use x="63.623047" xlink:href="#DejaVuSans-46"/>
      <use x="95.410156" xlink:href="#DejaVuSans-48"/>
     </g>
    </g>
   </g>
   <g id="xtick_6">
    <g id="line2d_7">
     <path d="M 654.758785 561.464552 
L 650.315613 565.708503 
" style="fill:none;stroke:#000000;stroke-linecap:square;stroke-width:0.8;"/>
    </g>
    <g id="text_6">
     <!-- 1.5 -->
     <g transform="translate(637.91261 586.773051)scale(0.1 -0.1)">
      <use xlink:href="#DejaVuSans-49"/>
      <use x="63.623047" xlink:href="#DejaVuSans-46"/>
      <use x="95.410156" xlink:href="#DejaVuSans-53"/>
     </g>
    </g>
   </g>
   <g id="xtick_7">
    <g id="line2d_8">
     <path d="M 692.756203 573.862245 
L 688.368918 578.161349 
" style="fill:none;stroke:#000000;stroke-linecap:square;stroke-width:0.8;"/>
    </g>
    <g id="text_7">
     <!-- 2.0 -->
     <g transform="translate(675.951876 599.318101)scale(0.1 -0.1)">
      <defs>
       <path d="M 19.1875 8.296875 
L 53.609375 8.296875 
L 53.609375 0 
L 7.328125 0 
L 7.328125 8.296875 
Q 12.9375 14.109375 22.625 23.890625 
Q 32.328125 33.6875 34.8125 36.53125 
Q 39.546875 41.84375 41.421875 45.53125 
Q 43.3125 49.21875 43.3125 52.78125 
Q 43.3125 58.59375 39.234375 62.25 
Q 35.15625 65.921875 28.609375 65.921875 
Q 23.96875 65.921875 18.8125 64.3125 
Q 13.671875 62.703125 7.8125 59.421875 
L 7.8125 69.390625 
Q 13.765625 71.78125 18.9375 73 
Q 24.125 74.21875 28.421875 74.21875 
Q 39.75 74.21875 46.484375 68.546875 
Q 53.21875 62.890625 53.21875 53.421875 
Q 53.21875 48.921875 51.53125 44.890625 
Q 49.859375 40.875 45.40625 35.40625 
Q 44.1875 33.984375 37.640625 27.21875 
Q 31.109375 20.453125 19.1875 8.296875 
z
" id="DejaVuSans-50"/>
      </defs>
      <use xlink:href="#DejaVuSans-50"/>
      <use x="63.623047" xlink:href="#DejaVuSans-46"/>
      <use x="95.410156" xlink:href="#DejaVuSans-48"/>
     </g>
    </g>
   </g>
   <g id="xtick_8">
    <g id="line2d_9">
     <path d="M 731.248478 586.421399 
L 726.918921 590.776738 
" style="fill:none;stroke:#000000;stroke-linecap:square;stroke-width:0.8;"/>
    </g>
    <g id="text_8">
     <!-- 2.5 -->
     <g transform="translate(714.487852 612.026961)scale(0.1 -0.1)">
      <use xlink:href="#DejaVuSans-50"/>
      <use x="63.623047" xlink:href="#DejaVuSans-46"/>
      <use x="95.410156" xlink:href="#DejaVuSans-53"/>
     </g>
    </g>
   </g>
  </g>
  <g id="axis3d_2">
   <g id="line2d_10">
    <path d="M 921.897364 429.926332 
L 758.773665 597.331377 
" style="fill:none;stroke:#000000;stroke-linecap:square;stroke-width:0.8;"/>
   </g>
   <g id="Line3DCollection_2">
    <path d="M 453.63849 256.007501 
L 464.145465 486.623956 
L 770.054658 585.754303 
" style="fill:none;stroke:#b0b0b0;stroke-width:0.8;"/>
    <path d="M 475.708549 239.901777 
L 485.148055 469.019169 
L 789.096066 566.213134 
" style="fill:none;stroke:#b0b0b0;stroke-width:0.8;"/>
    <path d="M 497.34165 224.114926 
L 505.752868 451.747807 
L 807.757815 547.061589 
" style="fill:none;stroke:#b0b0b0;stroke-width:0.8;"/>
    <path d="M 518.550641 208.63757 
L 525.971098 434.800485 
L 826.051146 528.288131 
" style="fill:none;stroke:#b0b0b0;stroke-width:0.8;"/>
    <path d="M 539.347874 193.460696 
L 545.813524 418.16817 
L 843.986863 509.881673 
" style="fill:none;stroke:#b0b0b0;stroke-width:0.8;"/>
    <path d="M 559.745224 178.575639 
L 565.290527 401.84216 
L 861.57535 491.831558 
" style="fill:none;stroke:#b0b0b0;stroke-width:0.8;"/>
    <path d="M 579.754115 163.974062 
L 584.41211 385.81407 
L 878.826595 474.127537 
" style="fill:none;stroke:#b0b0b0;stroke-width:0.8;"/>
    <path d="M 599.385539 149.647943 
L 603.187912 370.07582 
L 895.750205 456.75975 
" style="fill:none;stroke:#b0b0b0;stroke-width:0.8;"/>
    <path d="M 618.650078 135.58956 
L 621.627231 354.619618 
L 912.355426 439.718709 
" style="fill:none;stroke:#b0b0b0;stroke-width:0.8;"/>
   </g>
   <g id="xtick_9">
    <g id="line2d_11">
     <path d="M 767.476752 584.918929 
L 775.217138 587.427213 
" style="fill:none;stroke:#000000;stroke-linecap:square;stroke-width:0.8;"/>
    </g>
    <g id="text_9">
     <!-- −1.00 -->
     <g transform="translate(767.608717 606.771953)scale(0.1 -0.1)">
      <use xlink:href="#DejaVuSans-8722"/>
      <use x="83.789062" xlink:href="#DejaVuSans-49"/>
      <use x="147.412109" xlink:href="#DejaVuSans-46"/>
      <use x="179.199219" xlink:href="#DejaVuSans-48"/>
      <use x="242.822266" xlink:href="#DejaVuSans-48"/>
     </g>
    </g>
   </g>
   <g id="xtick_10">
    <g id="line2d_12">
     <path d="M 786.535993 565.394495 
L 794.222766 567.852507 
" style="fill:none;stroke:#000000;stroke-linecap:square;stroke-width:0.8;"/>
    </g>
    <g id="text_10">
     <!-- −0.75 -->
     <g transform="translate(786.525917 587.08998)scale(0.1 -0.1)">
      <defs>
       <path d="M 8.203125 72.90625 
L 55.078125 72.90625 
L 55.078125 68.703125 
L 28.609375 0 
L 18.3125 0 
L 43.21875 64.59375 
L 8.203125 64.59375 
z
" id="DejaVuSans-55"/>
      </defs>
      <use xlink:href="#DejaVuSans-8722"/>
      <use x="83.789062" xlink:href="#DejaVuSans-48"/>
      <use x="147.412109" xlink:href="#DejaVuSans-46"/>
      <use x="179.199219" xlink:href="#DejaVuSans-55"/>
      <use x="242.822266" xlink:href="#DejaVuSans-53"/>
     </g>
    </g>
   </g>
   <g id="xtick_11">
    <g id="line2d_13">
     <path d="M 805.21538 546.259188 
L 812.849128 548.668425 
" style="fill:none;stroke:#000000;stroke-linecap:square;stroke-width:0.8;"/>
    </g>
    <g id="text_11">
     <!-- −0.50 -->
     <g transform="translate(805.065824 567.800551)scale(0.1 -0.1)">
      <use xlink:href="#DejaVuSans-8722"/>
      <use x="83.789062" xlink:href="#DejaVuSans-48"/>
      <use x="147.412109" xlink:href="#DejaVuSans-46"/>
      <use x="179.199219" xlink:href="#DejaVuSans-53"/>
      <use x="242.822266" xlink:href="#DejaVuSans-48"/>
     </g>
    </g>
   </g>
   <g id="xtick_12">
    <g id="line2d_14">
     <path d="M 823.526155 527.501489 
L 831.107464 529.863388 
" style="fill:none;stroke:#000000;stroke-linecap:square;stroke-width:0.8;"/>
    </g>
    <g id="text_12">
     <!-- −0.25 -->
     <g transform="translate(823.239616 548.892039)scale(0.1 -0.1)">
      <use xlink:href="#DejaVuSans-8722"/>
      <use x="83.789062" xlink:href="#DejaVuSans-48"/>
      <use x="147.412109" xlink:href="#DejaVuSans-46"/>
      <use x="179.199219" xlink:href="#DejaVuSans-50"/>
      <use x="242.822266" xlink:href="#DejaVuSans-53"/>
     </g>
    </g>
   </g>
   <g id="xtick_13">
    <g id="line2d_15">
     <path d="M 841.479123 509.110331 
L 849.008574 511.426274 
" style="fill:none;stroke:#000000;stroke-linecap:square;stroke-width:0.8;"/>
    </g>
    <g id="text_13">
     <!-- 0.00 -->
     <g transform="translate(845.247876 530.353271)scale(0.1 -0.1)">
      <use xlink:href="#DejaVuSans-48"/>
      <use x="63.623047" xlink:href="#DejaVuSans-46"/>
      <use x="95.410156" xlink:href="#DejaVuSans-48"/>
      <use x="159.033203" xlink:href="#DejaVuSans-48"/>
     </g>
    </g>
   </g>
   <g id="xtick_14">
    <g id="line2d_16">
     <path d="M 859.08467 491.075074 
L 866.56284 493.346389 
" style="fill:none;stroke:#000000;stroke-linecap:square;stroke-width:0.8;"/>
    </g>
    <g id="text_14">
     <!-- 0.25 -->
     <g transform="translate(862.721237 512.173506)scale(0.1 -0.1)">
      <use xlink:href="#DejaVuSans-48"/>
      <use x="63.623047" xlink:href="#DejaVuSans-46"/>
      <use x="95.410156" xlink:href="#DejaVuSans-50"/>
      <use x="159.033203" xlink:href="#DejaVuSans-53"/>
     </g>
    </g>
   </g>
   <g id="xtick_15">
    <g id="line2d_17">
     <path d="M 876.352784 473.385485 
L 883.780247 475.613449 
" style="fill:none;stroke:#000000;stroke-linecap:square;stroke-width:0.8;"/>
    </g>
    <g id="text_15">
     <!-- 0.50 -->
     <g transform="translate(879.859472 494.342416)scale(0.1 -0.1)">
      <use xlink:href="#DejaVuSans-48"/>
      <use x="63.623047" xlink:href="#DejaVuSans-46"/>
      <use x="95.410156" xlink:href="#DejaVuSans-53"/>
      <use x="159.033203" xlink:href="#DejaVuSans-48"/>
     </g>
    </g>
   </g>
   <g id="xtick_16">
    <g id="line2d_18">
     <path d="M 893.293075 456.031721 
L 900.670398 458.217565 
" style="fill:none;stroke:#000000;stroke-linecap:square;stroke-width:0.8;"/>
    </g>
    <g id="text_16">
     <!-- 0.75 -->
     <g transform="translate(896.672128 476.850067)scale(0.1 -0.1)">
      <use xlink:href="#DejaVuSans-48"/>
      <use x="63.623047" xlink:href="#DejaVuSans-46"/>
      <use x="95.410156" xlink:href="#DejaVuSans-55"/>
      <use x="159.033203" xlink:href="#DejaVuSans-53"/>
     </g>
    </g>
   </g>
   <g id="xtick_17">
    <g id="line2d_19">
     <path d="M 909.914789 439.00431 
L 917.242536 441.149215 
" style="fill:none;stroke:#000000;stroke-linecap:square;stroke-width:0.8;"/>
    </g>
    <g id="text_17">
     <!-- 1.00 -->
     <g transform="translate(913.168398 459.686895)scale(0.1 -0.1)">
      <use xlink:href="#DejaVuSans-49"/>
      <use x="63.623047" xlink:href="#DejaVuSans-46"/>
      <use x="95.410156" xlink:href="#DejaVuSans-48"/>
      <use x="159.033203" xlink:href="#DejaVuSans-48"/>
     </g>
    </g>
   </g>
  </g>
  <g id="axis3d_3">
   <g id="line2d_20">
    <path d="M 921.897364 429.926332 
L 932.234549 204.188626 
" style="fill:none;stroke:#000000;stroke-linecap:square;stroke-width:0.8;"/>
   </g>
   <g id="Line3DCollection_3">
    <path d="M 923.176344 401.996683 
L 631.919572 318.681984 
L 450.335497 468.445342 
" style="fill:none;stroke:#b0b0b0;stroke-width:0.8;"/>
    <path d="M 924.429024 374.641354 
L 631.615076 292.202252 
L 448.985989 440.421935 
" style="fill:none;stroke:#b0b0b0;stroke-width:0.8;"/>
    <path d="M 925.695303 346.989054 
L 631.307433 265.448828 
L 447.62127 412.082669 
" style="fill:none;stroke:#b0b0b0;stroke-width:0.8;"/>
    <path d="M 926.975404 319.03492 
L 630.996593 238.417446 
L 446.241082 383.422171 
" style="fill:none;stroke:#b0b0b0;stroke-width:0.8;"/>
    <path d="M 928.269555 290.773983 
L 630.682508 211.103752 
L 444.84516 354.434949 
" style="fill:none;stroke:#b0b0b0;stroke-width:0.8;"/>
    <path d="M 929.577987 262.201165 
L 630.365125 183.503299 
L 443.433234 325.115385 
" style="fill:none;stroke:#b0b0b0;stroke-width:0.8;"/>
    <path d="M 930.900939 233.311274 
L 630.044392 155.61155 
L 442.005027 295.45773 
" style="fill:none;stroke:#b0b0b0;stroke-width:0.8;"/>
   </g>
   <g id="xtick_18">
    <g id="line2d_21">
     <path d="M 920.731264 401.297262 
L 928.072352 403.397198 
" style="fill:none;stroke:#000000;stroke-linecap:square;stroke-width:0.8;"/>
    </g>
    <g id="text_18">
     <!-- 0.70 -->
     <g transform="translate(930.419565 407.012724)scale(0.1 -0.1)">
      <use xlink:href="#DejaVuSans-48"/>
      <use x="63.623047" xlink:href="#DejaVuSans-46"/>
      <use x="95.410156" xlink:href="#DejaVuSans-55"/>
      <use x="159.033203" xlink:href="#DejaVuSans-48"/>
     </g>
    </g>
   </g>
   <g id="xtick_19">
    <g id="line2d_22">
     <path d="M 921.970247 373.949108 
L 929.35249 376.027511 
" style="fill:none;stroke:#000000;stroke-linecap:square;stroke-width:0.8;"/>
    </g>
    <g id="text_19">
     <!-- 0.75 -->
     <g transform="translate(931.769454 379.683901)scale(0.1 -0.1)">
      <use xlink:href="#DejaVuSans-48"/>
      <use x="63.623047" xlink:href="#DejaVuSans-46"/>
      <use x="95.410156" xlink:href="#DejaVuSans-55"/>
      <use x="159.033203" xlink:href="#DejaVuSans-53"/>
     </g>
    </g>
   </g>
   <g id="xtick_20">
    <g id="line2d_23">
     <path d="M 923.222676 346.30418 
L 930.646536 348.360457 
" style="fill:none;stroke:#000000;stroke-linecap:square;stroke-width:0.8;"/>
    </g>
    <g id="text_20">
     <!-- 0.80 -->
     <g transform="translate(933.133976 352.058834)scale(0.1 -0.1)">
      <defs>
       <path d="M 31.78125 34.625 
Q 24.75 34.625 20.71875 30.859375 
Q 16.703125 27.09375 16.703125 20.515625 
Q 16.703125 13.921875 20.71875 10.15625 
Q 24.75 6.390625 31.78125 6.390625 
Q 38.8125 6.390625 42.859375 10.171875 
Q 46.921875 13.96875 46.921875 20.515625 
Q 46.921875 27.09375 42.890625 30.859375 
Q 38.875 34.625 31.78125 34.625 
z
M 21.921875 38.8125 
Q 15.578125 40.375 12.03125 44.71875 
Q 8.5 49.078125 8.5 55.328125 
Q 8.5 64.0625 14.71875 69.140625 
Q 20.953125 74.21875 31.78125 74.21875 
Q 42.671875 74.21875 48.875 69.140625 
Q 55.078125 64.0625 55.078125 55.328125 
Q 55.078125 49.078125 51.53125 44.71875 
Q 48 40.375 41.703125 38.8125 
Q 48.828125 37.15625 52.796875 32.3125 
Q 56.78125 27.484375 56.78125 20.515625 
Q 56.78125 9.90625 50.3125 4.234375 
Q 43.84375 -1.421875 31.78125 -1.421875 
Q 19.734375 -1.421875 13.25 4.234375 
Q 6.78125 9.90625 6.78125 20.515625 
Q 6.78125 27.484375 10.78125 32.3125 
Q 14.796875 37.15625 21.921875 38.8125 
z
M 18.3125 54.390625 
Q 18.3125 48.734375 21.84375 45.5625 
Q 25.390625 42.390625 31.78125 42.390625 
Q 38.140625 42.390625 41.71875 45.5625 
Q 45.3125 48.734375 45.3125 54.390625 
Q 45.3125 60.0625 41.71875 63.234375 
Q 38.140625 66.40625 31.78125 66.40625 
Q 25.390625 66.40625 21.84375 63.234375 
Q 18.3125 60.0625 18.3125 54.390625 
z
" id="DejaVuSans-56"/>
      </defs>
      <use xlink:href="#DejaVuSans-48"/>
      <use x="63.623047" xlink:href="#DejaVuSans-46"/>
      <use x="95.410156" xlink:href="#DejaVuSans-56"/>
      <use x="159.033203" xlink:href="#DejaVuSans-48"/>
     </g>
    </g>
   </g>
   <g id="xtick_21">
    <g id="line2d_24">
     <path d="M 924.48877 318.35762 
L 931.954718 320.391164 
" style="fill:none;stroke:#000000;stroke-linecap:square;stroke-width:0.8;"/>
    </g>
    <g id="text_21">
     <!-- 0.85 -->
     <g transform="translate(934.51337 324.132682)scale(0.1 -0.1)">
      <use xlink:href="#DejaVuSans-48"/>
      <use x="63.623047" xlink:href="#DejaVuSans-46"/>
      <use x="95.410156" xlink:href="#DejaVuSans-56"/>
      <use x="159.033203" xlink:href="#DejaVuSans-53"/>
     </g>
    </g>
   </g>
   <g id="xtick_22">
    <g id="line2d_25">
     <path d="M 925.768753 290.104466 
L 933.277269 292.114652 
" style="fill:none;stroke:#000000;stroke-linecap:square;stroke-width:0.8;"/>
    </g>
    <g id="text_22">
     <!-- 0.90 -->
     <g transform="translate(935.90788 295.900495)scale(0.1 -0.1)">
      <defs>
       <path d="M 10.984375 1.515625 
L 10.984375 10.5 
Q 14.703125 8.734375 18.5 7.8125 
Q 22.3125 6.890625 25.984375 6.890625 
Q 35.75 6.890625 40.890625 13.453125 
Q 46.046875 20.015625 46.78125 33.40625 
Q 43.953125 29.203125 39.59375 26.953125 
Q 35.25 24.703125 29.984375 24.703125 
Q 19.046875 24.703125 12.671875 31.3125 
Q 6.296875 37.9375 6.296875 49.421875 
Q 6.296875 60.640625 12.9375 67.421875 
Q 19.578125 74.21875 30.609375 74.21875 
Q 43.265625 74.21875 49.921875 64.515625 
Q 56.59375 54.828125 56.59375 36.375 
Q 56.59375 19.140625 48.40625 8.859375 
Q 40.234375 -1.421875 26.421875 -1.421875 
Q 22.703125 -1.421875 18.890625 -0.6875 
Q 15.09375 0.046875 10.984375 1.515625 
z
M 30.609375 32.421875 
Q 37.25 32.421875 41.125 36.953125 
Q 45.015625 41.5 45.015625 49.421875 
Q 45.015625 57.28125 41.125 61.84375 
Q 37.25 66.40625 30.609375 66.40625 
Q 23.96875 66.40625 20.09375 61.84375 
Q 16.21875 57.28125 16.21875 49.421875 
Q 16.21875 41.5 20.09375 36.953125 
Q 23.96875 32.421875 30.609375 32.421875 
z
" id="DejaVuSans-57"/>
      </defs>
      <use xlink:href="#DejaVuSans-48"/>
      <use x="63.623047" xlink:href="#DejaVuSans-46"/>
      <use x="95.410156" xlink:href="#DejaVuSans-57"/>
      <use x="159.033203" xlink:href="#DejaVuSans-48"/>
     </g>
    </g>
   </g>
   <g id="xtick_23">
    <g id="line2d_26">
     <path d="M 927.062857 261.539644 
L 934.614428 263.525831 
" style="fill:none;stroke:#000000;stroke-linecap:square;stroke-width:0.8;"/>
    </g>
    <g id="text_23">
     <!-- 0.95 -->
     <g transform="translate(937.317757 267.357215)scale(0.1 -0.1)">
      <use xlink:href="#DejaVuSans-48"/>
      <use x="63.623047" xlink:href="#DejaVuSans-46"/>
      <use x="95.410156" xlink:href="#DejaVuSans-57"/>
      <use x="159.033203" xlink:href="#DejaVuSans-53"/>
     </g>
    </g>
   </g>
   <g id="xtick_24">
    <g id="line2d_27">
     <path d="M 928.371315 232.657969 
L 935.966438 234.619498 
" style="fill:none;stroke:#000000;stroke-linecap:square;stroke-width:0.8;"/>
    </g>
    <g id="text_24">
     <!-- 1.00 -->
     <g transform="translate(938.743255 238.49767)scale(0.1 -0.1)">
      <use xlink:href="#DejaVuSans-49"/>
      <use x="63.623047" xlink:href="#DejaVuSans-46"/>
      <use x="95.410156" xlink:href="#DejaVuSans-48"/>
      <use x="159.033203" xlink:href="#DejaVuSans-48"/>
     </g>
    </g>
   </g>
  </g>
  <g id="axes_1">
   <g id="line2d_28">
    <path clip-path="url(#p7a9cc5b287)" d="M 864.021992 453.986683 
L 863.397476 457.645364 
L 862.992322 455.262708 
L 862.998835 448.092317 
L 863.497993 437.261576 
L 864.434581 423.777771 
L 866.917433 392.193676 
L 867.955703 375.452147 
L 868.465861 358.81043 
L 868.148269 342.710081 
L 866.725847 327.513412 
L 863.964607 313.500579 
L 859.692068 300.862346 
L 853.812805 289.693574 
L 846.32019 279.993034 
L 837.303327 271.673896 
L 826.948052 264.5861 
L 815.530889 258.546938 
L 803.404833 253.370714 
L 790.975896 248.884318 
L 778.669527 244.933925 
L 737.873035 232.603016 
L 730.956232 230.261584 
L 725.53681 228.227756 
L 721.577227 226.489761 
L 718.983539 225.013679 
L 717.619116 223.746822 
L 717.318226 222.62522 
L 717.898669 221.582401 
L 719.17289 220.557299 
L 720.95727 219.49997 
L 727.734685 215.848711 
L 730.018879 214.442961 
L 732.145627 212.953009 
L 734.04623 211.393259 
L 735.672502 209.779811 
L 736.994635 208.128515 
L 737.998673 206.45374 
L 738.683781 204.767765 
L 739.059487 203.080663 
L 739.143029 201.400507 
L 738.95691 199.733746 
L 738.526722 198.085646 
L 737.879298 196.460686 
L 737.041203 194.86288 
L 736.037555 193.296008 
L 734.891186 191.763743 
L 732.247082 188.817461 
L 729.230827 186.052128 
L 725.915595 183.493601 
L 722.334175 181.164095 
L 718.491313 179.081387 
L 714.376392 177.258744 
L 709.974169 175.705309 
L 705.272442 174.426733 
L 700.266488 173.425862 
L 694.960727 172.703423 
L 689.368347 172.258643 
L 683.509721 172.089759 
L 677.410316 172.194396 
L 671.098643 172.569796 
L 664.604563 173.212908 
L 657.958091 174.120374 
L 651.188714 175.288442 
L 644.325126 176.712843 
L 637.395268 178.388672 
L 630.426534 180.310273 
L 623.446037 182.471155 
L 616.480856 184.863936 
L 609.558217 187.480303 
L 602.705586 190.311007 
L 595.950671 193.345858 
L 589.321367 196.57374 
L 582.845636 199.982631 
L 576.551364 203.559625 
L 570.466204 207.290959 
L 564.617416 211.162045 
L 559.031711 215.157504 
L 553.735107 219.261201 
L 548.752786 223.456294 
L 544.108961 227.725277 
L 539.826746 232.050041 
L 535.92802 236.411931 
L 532.433296 240.791819 
L 529.361587 245.170179 
L 526.730262 249.527169 
L 524.554916 253.842725 
L 522.849229 258.096656 
L 521.62483 262.26875 
L 521.196157 264.317812 
L 520.891176 266.33888 
L 520.710709 268.329472 
L 520.655429 270.287125 
L 520.725856 272.2094 
L 520.922352 274.093885 
L 521.245122 275.938202 
L 521.694209 277.740006 
L 522.269494 279.496994 
L 522.970692 281.206905 
L 523.797351 282.867525 
L 524.748854 284.476694 
L 525.824412 286.032305 
L 527.02307 287.53231 
L 528.343701 288.974726 
L 529.78501 290.357635 
L 531.345534 291.67919 
L 533.023641 292.937618 
L 534.817532 294.131224 
L 536.725245 295.258392 
L 538.744651 296.317591 
L 543.109235 298.226401 
L 547.891099 299.8472 
L 553.067629 301.17106 
L 558.613907 302.190656 
L 564.502854 302.900322 
L 570.705402 303.296105 
L 577.190676 303.375795 
L 583.926195 303.138948 
L 590.87809 302.586886 
L 598.011332 301.722688 
L 605.289968 300.551162 
L 612.677367 299.078806 
L 620.136464 297.31375 
L 627.630006 295.265689 
L 635.120804 292.945802 
L 642.571965 290.366661 
L 649.947125 287.542131 
L 657.210675 284.487259 
L 664.327964 281.218159 
L 671.2655 277.751893 
L 677.991126 274.106345 
L 684.47418 270.300098 
L 690.685647 266.352303 
L 696.598277 262.282559 
L 702.1867 258.110788 
L 702.1867 258.110788 
" style="fill:none;stroke:#0000ff;stroke-linecap:square;stroke-width:1.5;"/>
   </g>
   <g id="line2d_29">
    <path clip-path="url(#p7a9cc5b287)" d="M 864.021992 453.986683 
L 872.343974 262.159193 
L 872.343974 262.159193 
L 705.836935 267.815468 
L 710.830573 263.486968 
L 715.442306 259.109917 
L 719.654288 254.704578 
L 723.450809 250.291016 
L 726.818319 245.889013 
L 729.745413 241.517974 
L 732.222823 237.196851 
L 734.243391 232.944072 
L 735.802028 228.777473 
L 736.895672 224.714247 
L 737.523235 220.770887 
L 737.662422 218.849111 
L 737.685545 216.963148 
L 737.592998 215.114847 
L 737.385283 213.306004 
L 737.063015 211.538365 
L 736.626914 209.813622 
L 736.077806 208.133415 
L 735.41662 206.49933 
L 734.644386 204.912901 
L 733.76223 203.375602 
L 732.771378 201.888858 
L 731.673147 200.454034 
L 730.468945 199.072441 
L 729.160273 197.745334 
L 726.235946 195.259311 
L 722.913862 193.004867 
L 719.209012 190.989992 
L 715.13761 189.221762 
L 710.717032 187.706333 
L 705.965752 186.448944 
L 700.903281 185.453916 
L 695.550106 184.724649 
L 689.927633 184.263627 
L 684.058134 184.072416 
L 677.964688 184.151664 
L 671.671127 184.501102 
L 665.201985 185.119545 
L 658.58244 186.00489 
L 651.838261 187.154114 
L 644.995753 188.563279 
L 638.081695 190.227526 
L 631.123283 192.141078 
L 624.148066 194.29724 
L 617.18388 196.688401 
L 610.258775 199.306035 
L 603.400941 202.140708 
L 596.638628 205.182084 
L 590.000062 208.418932 
L 583.51335 211.83914 
L 577.206385 215.429732 
L 571.106745 219.176885 
L 565.241578 223.065956 
L 559.637491 227.081508 
L 554.320426 231.20735 
L 549.315537 235.426572 
L 544.647051 239.721599 
L 540.338138 244.07424 
L 536.41077 248.465752 
L 532.885575 252.876907 
L 529.781699 257.288071 
L 527.116659 261.679284 
L 524.9062 266.030354 
L 523.16416 270.320951 
L 521.902334 274.530716 
L 521.454598 276.598942 
L 521.13035 278.639366 
L 520.930433 280.649486 
L 520.855545 282.626816 
L 520.906227 284.568897 
L 521.082866 286.473294 
L 521.385692 288.337606 
L 521.814771 290.159467 
L 522.37001 291.936548 
L 523.051149 293.666567 
L 523.857763 295.347284 
L 524.789259 296.976516 
L 525.844877 298.552132 
L 527.023688 300.072059 
L 528.324591 301.534289 
L 529.746319 302.936881 
L 531.287436 304.277961 
L 532.946337 305.555732 
L 534.721251 306.768474 
L 536.61024 307.914548 
L 538.611205 308.992397 
L 542.939857 310.937639 
L 547.687227 312.593555 
L 552.830903 313.951029 
L 558.346154 315.002551 
L 564.206085 315.742282 
L 570.381792 316.166101 
L 576.842554 316.271644 
L 583.556028 316.058322 
L 590.488465 315.527324 
L 597.604941 314.681614 
L 604.869586 313.525896 
L 612.245837 312.066582 
L 619.696674 310.311733 
L 627.184875 308.27099 
L 634.673255 305.955498 
L 642.124912 303.377812 
L 649.503454 300.551797 
L 656.773224 297.492516 
L 663.899509 294.216121 
L 670.848736 290.739724 
L 677.588653 287.081278 
L 684.088495 283.259448 
L 690.319123 279.293483 
L 696.253162 275.203094 
L 699.100912 273.117493 
L 699.100912 273.117493 
" style="fill:none;stroke:#ff0000;stroke-linecap:square;stroke-width:1.5;"/>
   </g>
   <g id="legend_1">
    <g id="patch_6">
     <path d="M 740.905887 122.54665 
L 950.0762 122.54665 
Q 952.0762 122.54665 952.0762 120.54665 
L 952.0762 92.1904 
Q 952.0762 90.1904 950.0762 90.1904 
L 740.905887 90.1904 
Q 738.905887 90.1904 738.905887 92.1904 
L 738.905887 120.54665 
Q 738.905887 122.54665 740.905887 122.54665 
z
" style="fill:#ffffff;opacity:0.8;stroke:#cccccc;stroke-linejoin:miter;"/>
    </g>
    <g id="line2d_30">
     <path d="M 742.905887 98.288837 
L 762.905887 98.288837 
" style="fill:none;stroke:#0000ff;stroke-linecap:square;stroke-width:1.5;"/>
    </g>
    <g id="line2d_31"/>
    <g id="text_25">
     <!-- trajectory with parameter:0,0,-1.92 -->
     <g transform="translate(770.905887 101.788837)scale(0.1 -0.1)">
      <defs>
       <path d="M 18.3125 70.21875 
L 18.3125 54.6875 
L 36.8125 54.6875 
L 36.8125 47.703125 
L 18.3125 47.703125 
L 18.3125 18.015625 
Q 18.3125 11.328125 20.140625 9.421875 
Q 21.96875 7.515625 27.59375 7.515625 
L 36.8125 7.515625 
L 36.8125 0 
L 27.59375 0 
Q 17.1875 0 13.234375 3.875 
Q 9.28125 7.765625 9.28125 18.015625 
L 9.28125 47.703125 
L 2.6875 47.703125 
L 2.6875 54.6875 
L 9.28125 54.6875 
L 9.28125 70.21875 
z
" id="DejaVuSans-116"/>
       <path d="M 41.109375 46.296875 
Q 39.59375 47.171875 37.8125 47.578125 
Q 36.03125 48 33.890625 48 
Q 26.265625 48 22.1875 43.046875 
Q 18.109375 38.09375 18.109375 28.8125 
L 18.109375 0 
L 9.078125 0 
L 9.078125 54.6875 
L 18.109375 54.6875 
L 18.109375 46.1875 
Q 20.953125 51.171875 25.484375 53.578125 
Q 30.03125 56 36.53125 56 
Q 37.453125 56 38.578125 55.875 
Q 39.703125 55.765625 41.0625 55.515625 
z
" id="DejaVuSans-114"/>
       <path d="M 34.28125 27.484375 
Q 23.390625 27.484375 19.1875 25 
Q 14.984375 22.515625 14.984375 16.5 
Q 14.984375 11.71875 18.140625 8.90625 
Q 21.296875 6.109375 26.703125 6.109375 
Q 34.1875 6.109375 38.703125 11.40625 
Q 43.21875 16.703125 43.21875 25.484375 
L 43.21875 27.484375 
z
M 52.203125 31.203125 
L 52.203125 0 
L 43.21875 0 
L 43.21875 8.296875 
Q 40.140625 3.328125 35.546875 0.953125 
Q 30.953125 -1.421875 24.3125 -1.421875 
Q 15.921875 -1.421875 10.953125 3.296875 
Q 6 8.015625 6 15.921875 
Q 6 25.140625 12.171875 29.828125 
Q 18.359375 34.515625 30.609375 34.515625 
L 43.21875 34.515625 
L 43.21875 35.40625 
Q 43.21875 41.609375 39.140625 45 
Q 35.0625 48.390625 27.6875 48.390625 
Q 23 48.390625 18.546875 47.265625 
Q 14.109375 46.140625 10.015625 43.890625 
L 10.015625 52.203125 
Q 14.9375 54.109375 19.578125 55.046875 
Q 24.21875 56 28.609375 56 
Q 40.484375 56 46.34375 49.84375 
Q 52.203125 43.703125 52.203125 31.203125 
z
" id="DejaVuSans-97"/>
       <path d="M 9.421875 54.6875 
L 18.40625 54.6875 
L 18.40625 -0.984375 
Q 18.40625 -11.421875 14.421875 -16.109375 
Q 10.453125 -20.796875 1.609375 -20.796875 
L -1.8125 -20.796875 
L -1.8125 -13.1875 
L 0.59375 -13.1875 
Q 5.71875 -13.1875 7.5625 -10.8125 
Q 9.421875 -8.453125 9.421875 -0.984375 
z
M 9.421875 75.984375 
L 18.40625 75.984375 
L 18.40625 64.59375 
L 9.421875 64.59375 
z
" id="DejaVuSans-106"/>
       <path d="M 56.203125 29.59375 
L 56.203125 25.203125 
L 14.890625 25.203125 
Q 15.484375 15.921875 20.484375 11.0625 
Q 25.484375 6.203125 34.421875 6.203125 
Q 39.59375 6.203125 44.453125 7.46875 
Q 49.3125 8.734375 54.109375 11.28125 
L 54.109375 2.78125 
Q 49.265625 0.734375 44.1875 -0.34375 
Q 39.109375 -1.421875 33.890625 -1.421875 
Q 20.796875 -1.421875 13.15625 6.1875 
Q 5.515625 13.8125 5.515625 26.8125 
Q 5.515625 40.234375 12.765625 48.109375 
Q 20.015625 56 32.328125 56 
Q 43.359375 56 49.78125 48.890625 
Q 56.203125 41.796875 56.203125 29.59375 
z
M 47.21875 32.234375 
Q 47.125 39.59375 43.09375 43.984375 
Q 39.0625 48.390625 32.421875 48.390625 
Q 24.90625 48.390625 20.390625 44.140625 
Q 15.875 39.890625 15.1875 32.171875 
z
" id="DejaVuSans-101"/>
       <path d="M 48.78125 52.59375 
L 48.78125 44.1875 
Q 44.96875 46.296875 41.140625 47.34375 
Q 37.3125 48.390625 33.40625 48.390625 
Q 24.65625 48.390625 19.8125 42.84375 
Q 14.984375 37.3125 14.984375 27.296875 
Q 14.984375 17.28125 19.8125 11.734375 
Q 24.65625 6.203125 33.40625 6.203125 
Q 37.3125 6.203125 41.140625 7.25 
Q 44.96875 8.296875 48.78125 10.40625 
L 48.78125 2.09375 
Q 45.015625 0.34375 40.984375 -0.53125 
Q 36.96875 -1.421875 32.421875 -1.421875 
Q 20.0625 -1.421875 12.78125 6.34375 
Q 5.515625 14.109375 5.515625 27.296875 
Q 5.515625 40.671875 12.859375 48.328125 
Q 20.21875 56 33.015625 56 
Q 37.15625 56 41.109375 55.140625 
Q 45.0625 54.296875 48.78125 52.59375 
z
" id="DejaVuSans-99"/>
       <path d="M 30.609375 48.390625 
Q 23.390625 48.390625 19.1875 42.75 
Q 14.984375 37.109375 14.984375 27.296875 
Q 14.984375 17.484375 19.15625 11.84375 
Q 23.34375 6.203125 30.609375 6.203125 
Q 37.796875 6.203125 41.984375 11.859375 
Q 46.1875 17.53125 46.1875 27.296875 
Q 46.1875 37.015625 41.984375 42.703125 
Q 37.796875 48.390625 30.609375 48.390625 
z
M 30.609375 56 
Q 42.328125 56 49.015625 48.375 
Q 55.71875 40.765625 55.71875 27.296875 
Q 55.71875 13.875 49.015625 6.21875 
Q 42.328125 -1.421875 30.609375 -1.421875 
Q 18.84375 -1.421875 12.171875 6.21875 
Q 5.515625 13.875 5.515625 27.296875 
Q 5.515625 40.765625 12.171875 48.375 
Q 18.84375 56 30.609375 56 
z
" id="DejaVuSans-111"/>
       <path d="M 32.171875 -5.078125 
Q 28.375 -14.84375 24.75 -17.8125 
Q 21.140625 -20.796875 15.09375 -20.796875 
L 7.90625 -20.796875 
L 7.90625 -13.28125 
L 13.1875 -13.28125 
Q 16.890625 -13.28125 18.9375 -11.515625 
Q 21 -9.765625 23.484375 -3.21875 
L 25.09375 0.875 
L 2.984375 54.6875 
L 12.5 54.6875 
L 29.59375 11.921875 
L 46.6875 54.6875 
L 56.203125 54.6875 
z
" id="DejaVuSans-121"/>
       <path id="DejaVuSans-32"/>
       <path d="M 4.203125 54.6875 
L 13.1875 54.6875 
L 24.421875 12.015625 
L 35.59375 54.6875 
L 46.1875 54.6875 
L 57.421875 12.015625 
L 68.609375 54.6875 
L 77.59375 54.6875 
L 63.28125 0 
L 52.6875 0 
L 40.921875 44.828125 
L 29.109375 0 
L 18.5 0 
z
" id="DejaVuSans-119"/>
       <path d="M 9.421875 54.6875 
L 18.40625 54.6875 
L 18.40625 0 
L 9.421875 0 
z
M 9.421875 75.984375 
L 18.40625 75.984375 
L 18.40625 64.59375 
L 9.421875 64.59375 
z
" id="DejaVuSans-105"/>
       <path d="M 54.890625 33.015625 
L 54.890625 0 
L 45.90625 0 
L 45.90625 32.71875 
Q 45.90625 40.484375 42.875 44.328125 
Q 39.84375 48.1875 33.796875 48.1875 
Q 26.515625 48.1875 22.3125 43.546875 
Q 18.109375 38.921875 18.109375 30.90625 
L 18.109375 0 
L 9.078125 0 
L 9.078125 75.984375 
L 18.109375 75.984375 
L 18.109375 46.1875 
Q 21.34375 51.125 25.703125 53.5625 
Q 30.078125 56 35.796875 56 
Q 45.21875 56 50.046875 50.171875 
Q 54.890625 44.34375 54.890625 33.015625 
z
" id="DejaVuSans-104"/>
       <path d="M 18.109375 8.203125 
L 18.109375 -20.796875 
L 9.078125 -20.796875 
L 9.078125 54.6875 
L 18.109375 54.6875 
L 18.109375 46.390625 
Q 20.953125 51.265625 25.265625 53.625 
Q 29.59375 56 35.59375 56 
Q 45.5625 56 51.78125 48.09375 
Q 58.015625 40.1875 58.015625 27.296875 
Q 58.015625 14.40625 51.78125 6.484375 
Q 45.5625 -1.421875 35.59375 -1.421875 
Q 29.59375 -1.421875 25.265625 0.953125 
Q 20.953125 3.328125 18.109375 8.203125 
z
M 48.6875 27.296875 
Q 48.6875 37.203125 44.609375 42.84375 
Q 40.53125 48.484375 33.40625 48.484375 
Q 26.265625 48.484375 22.1875 42.84375 
Q 18.109375 37.203125 18.109375 27.296875 
Q 18.109375 17.390625 22.1875 11.75 
Q 26.265625 6.109375 33.40625 6.109375 
Q 40.53125 6.109375 44.609375 11.75 
Q 48.6875 17.390625 48.6875 27.296875 
z
" id="DejaVuSans-112"/>
       <path d="M 52 44.1875 
Q 55.375 50.25 60.0625 53.125 
Q 64.75 56 71.09375 56 
Q 79.640625 56 84.28125 50.015625 
Q 88.921875 44.046875 88.921875 33.015625 
L 88.921875 0 
L 79.890625 0 
L 79.890625 32.71875 
Q 79.890625 40.578125 77.09375 44.375 
Q 74.3125 48.1875 68.609375 48.1875 
Q 61.625 48.1875 57.5625 43.546875 
Q 53.515625 38.921875 53.515625 30.90625 
L 53.515625 0 
L 44.484375 0 
L 44.484375 32.71875 
Q 44.484375 40.625 41.703125 44.40625 
Q 38.921875 48.1875 33.109375 48.1875 
Q 26.21875 48.1875 22.15625 43.53125 
Q 18.109375 38.875 18.109375 30.90625 
L 18.109375 0 
L 9.078125 0 
L 9.078125 54.6875 
L 18.109375 54.6875 
L 18.109375 46.1875 
Q 21.1875 51.21875 25.484375 53.609375 
Q 29.78125 56 35.6875 56 
Q 41.65625 56 45.828125 52.96875 
Q 50 49.953125 52 44.1875 
z
" id="DejaVuSans-109"/>
       <path d="M 11.71875 12.40625 
L 22.015625 12.40625 
L 22.015625 0 
L 11.71875 0 
z
M 11.71875 51.703125 
L 22.015625 51.703125 
L 22.015625 39.3125 
L 11.71875 39.3125 
z
" id="DejaVuSans-58"/>
       <path d="M 11.71875 12.40625 
L 22.015625 12.40625 
L 22.015625 4 
L 14.015625 -11.625 
L 7.71875 -11.625 
L 11.71875 4 
z
" id="DejaVuSans-44"/>
       <path d="M 4.890625 31.390625 
L 31.203125 31.390625 
L 31.203125 23.390625 
L 4.890625 23.390625 
z
" id="DejaVuSans-45"/>
      </defs>
      <use xlink:href="#DejaVuSans-116"/>
      <use x="39.208984" xlink:href="#DejaVuSans-114"/>
      <use x="80.322266" xlink:href="#DejaVuSans-97"/>
      <use x="141.601562" xlink:href="#DejaVuSans-106"/>
      <use x="169.384766" xlink:href="#DejaVuSans-101"/>
      <use x="230.908203" xlink:href="#DejaVuSans-99"/>
      <use x="285.888672" xlink:href="#DejaVuSans-116"/>
      <use x="325.097656" xlink:href="#DejaVuSans-111"/>
      <use x="386.279297" xlink:href="#DejaVuSans-114"/>
      <use x="427.392578" xlink:href="#DejaVuSans-121"/>
      <use x="486.572266" xlink:href="#DejaVuSans-32"/>
      <use x="518.359375" xlink:href="#DejaVuSans-119"/>
      <use x="600.146484" xlink:href="#DejaVuSans-105"/>
      <use x="627.929688" xlink:href="#DejaVuSans-116"/>
      <use x="667.138672" xlink:href="#DejaVuSans-104"/>
      <use x="730.517578" xlink:href="#DejaVuSans-32"/>
      <use x="762.304688" xlink:href="#DejaVuSans-112"/>
      <use x="825.78125" xlink:href="#DejaVuSans-97"/>
      <use x="887.060547" xlink:href="#DejaVuSans-114"/>
      <use x="928.173828" xlink:href="#DejaVuSans-97"/>
      <use x="989.453125" xlink:href="#DejaVuSans-109"/>
      <use x="1086.865234" xlink:href="#DejaVuSans-101"/>
      <use x="1148.388672" xlink:href="#DejaVuSans-116"/>
      <use x="1187.597656" xlink:href="#DejaVuSans-101"/>
      <use x="1249.121094" xlink:href="#DejaVuSans-114"/>
      <use x="1288.484375" xlink:href="#DejaVuSans-58"/>
      <use x="1322.175781" xlink:href="#DejaVuSans-48"/>
      <use x="1385.798828" xlink:href="#DejaVuSans-44"/>
      <use x="1417.585938" xlink:href="#DejaVuSans-48"/>
      <use x="1481.208984" xlink:href="#DejaVuSans-44"/>
      <use x="1512.996094" xlink:href="#DejaVuSans-45"/>
      <use x="1549.080078" xlink:href="#DejaVuSans-49"/>
      <use x="1612.703125" xlink:href="#DejaVuSans-46"/>
      <use x="1644.490234" xlink:href="#DejaVuSans-57"/>
      <use x="1708.113281" xlink:href="#DejaVuSans-50"/>
     </g>
    </g>
    <g id="line2d_32">
     <path d="M 742.905887 112.966962 
L 762.905887 112.966962 
" style="fill:none;stroke:#ff0000;stroke-linecap:square;stroke-width:1.5;"/>
    </g>
    <g id="line2d_33"/>
    <g id="text_26">
     <!-- original trajectory -->
     <g transform="translate(770.905887 116.466962)scale(0.1 -0.1)">
      <defs>
       <path d="M 45.40625 27.984375 
Q 45.40625 37.75 41.375 43.109375 
Q 37.359375 48.484375 30.078125 48.484375 
Q 22.859375 48.484375 18.828125 43.109375 
Q 14.796875 37.75 14.796875 27.984375 
Q 14.796875 18.265625 18.828125 12.890625 
Q 22.859375 7.515625 30.078125 7.515625 
Q 37.359375 7.515625 41.375 12.890625 
Q 45.40625 18.265625 45.40625 27.984375 
z
M 54.390625 6.78125 
Q 54.390625 -7.171875 48.1875 -13.984375 
Q 42 -20.796875 29.203125 -20.796875 
Q 24.46875 -20.796875 20.265625 -20.09375 
Q 16.0625 -19.390625 12.109375 -17.921875 
L 12.109375 -9.1875 
Q 16.0625 -11.328125 19.921875 -12.34375 
Q 23.78125 -13.375 27.78125 -13.375 
Q 36.625 -13.375 41.015625 -8.765625 
Q 45.40625 -4.15625 45.40625 5.171875 
L 45.40625 9.625 
Q 42.625 4.78125 38.28125 2.390625 
Q 33.9375 0 27.875 0 
Q 17.828125 0 11.671875 7.65625 
Q 5.515625 15.328125 5.515625 27.984375 
Q 5.515625 40.671875 11.671875 48.328125 
Q 17.828125 56 27.875 56 
Q 33.9375 56 38.28125 53.609375 
Q 42.625 51.21875 45.40625 46.390625 
L 45.40625 54.6875 
L 54.390625 54.6875 
z
" id="DejaVuSans-103"/>
       <path d="M 54.890625 33.015625 
L 54.890625 0 
L 45.90625 0 
L 45.90625 32.71875 
Q 45.90625 40.484375 42.875 44.328125 
Q 39.84375 48.1875 33.796875 48.1875 
Q 26.515625 48.1875 22.3125 43.546875 
Q 18.109375 38.921875 18.109375 30.90625 
L 18.109375 0 
L 9.078125 0 
L 9.078125 54.6875 
L 18.109375 54.6875 
L 18.109375 46.1875 
Q 21.34375 51.125 25.703125 53.5625 
Q 30.078125 56 35.796875 56 
Q 45.21875 56 50.046875 50.171875 
Q 54.890625 44.34375 54.890625 33.015625 
z
" id="DejaVuSans-110"/>
       <path d="M 9.421875 75.984375 
L 18.40625 75.984375 
L 18.40625 0 
L 9.421875 0 
z
" id="DejaVuSans-108"/>
      </defs>
      <use xlink:href="#DejaVuSans-111"/>
      <use x="61.181641" xlink:href="#DejaVuSans-114"/>
      <use x="102.294922" xlink:href="#DejaVuSans-105"/>
      <use x="130.078125" xlink:href="#DejaVuSans-103"/>
      <use x="193.554688" xlink:href="#DejaVuSans-105"/>
      <use x="221.337891" xlink:href="#DejaVuSans-110"/>
      <use x="284.716797" xlink:href="#DejaVuSans-97"/>
      <use x="345.996094" xlink:href="#DejaVuSans-108"/>
      <use x="373.779297" xlink:href="#DejaVuSans-32"/>
      <use x="405.566406" xlink:href="#DejaVuSans-116"/>
      <use x="444.775391" xlink:href="#DejaVuSans-114"/>
      <use x="485.888672" xlink:href="#DejaVuSans-97"/>
      <use x="547.167969" xlink:href="#DejaVuSans-106"/>
      <use x="574.951172" xlink:href="#DejaVuSans-101"/>
      <use x="636.474609" xlink:href="#DejaVuSans-99"/>
      <use x="691.455078" xlink:href="#DejaVuSans-116"/>
      <use x="730.664062" xlink:href="#DejaVuSans-111"/>
      <use x="791.845703" xlink:href="#DejaVuSans-114"/>
      <use x="832.958984" xlink:href="#DejaVuSans-121"/>
     </g>
    </g>
   </g>
  </g>
 </g>
 <defs>
  <clipPath id="p7a9cc5b287">
   <rect height="546.6384" width="546.6384" x="410.4378" y="85.1904"/>
  </clipPath>
 </defs>
</svg>
