<?xml version="1.0" encoding="utf-8" standalone="no"?>
<!DOCTYPE svg PUBLIC "-//W3C//DTD SVG 1.1//EN"
  "http://www.w3.org/Graphics/SVG/1.1/DTD/svg11.dtd">
<!-- Created with matplotlib (https://matplotlib.org/) -->
<svg height="709.92pt" version="1.1" viewBox="0 0 1334.16 709.92" width="1334.16pt" xmlns="http://www.w3.org/2000/svg" xmlns:xlink="http://www.w3.org/1999/xlink">
 <metadata>
  <rdf:RDF xmlns:cc="http://creativecommons.org/ns#" xmlns:dc="http://purl.org/dc/elements/1.1/" xmlns:rdf="http://www.w3.org/1999/02/22-rdf-syntax-ns#">
   <cc:Work>
    <dc:type rdf:resource="http://purl.org/dc/dcmitype/StillImage"/>
    <dc:date>2021-11-11T10:28:44.619711</dc:date>
    <dc:format>image/svg+xml</dc:format>
    <dc:creator>
     <cc:Agent>
      <dc:title>Matplotlib v3.3.4, https://matplotlib.org/</dc:title>
     </cc:Agent>
    </dc:creator>
   </cc:Work>
  </rdf:RDF>
 </metadata>
 <defs>
  <style type="text/css">*{stroke-linecap:butt;stroke-linejoin:round;}</style>
 </defs>
 <g id="figure_1">
  <g id="patch_1">
   <path d="M 0 709.92 
L 1334.16 709.92 
L 1334.16 0 
L 0 0 
z
" style="fill:#ffffff;"/>
  </g>
  <g id="patch_2">
   <path d="M 410.4378 631.8288 
L 957.0762 631.8288 
L 957.0762 85.1904 
L 410.4378 85.1904 
z
" style="fill:#ffffff;"/>
  </g>
  <g id="pane3d_1">
   <g id="patch_3">
    <path d="M 451.712769 497.045289 
L 632.230621 345.731646 
L 629.72125 127.510323 
L 440.564688 265.548166 
" style="fill:#f2f2f2;opacity:0.5;stroke:#f2f2f2;stroke-linejoin:miter;"/>
   </g>
  </g>
  <g id="pane3d_2">
   <g id="patch_4">
    <path d="M 632.230621 345.731646 
L 921.897364 429.926332 
L 932.234549 204.188626 
L 629.72125 127.510323 
" style="fill:#e6e6e6;opacity:0.5;stroke:#e6e6e6;stroke-linejoin:miter;"/>
   </g>
  </g>
  <g id="pane3d_3">
   <g id="patch_5">
    <path d="M 451.712769 497.045289 
L 758.773665 597.331377 
L 921.897364 429.926332 
L 632.230621 345.731646 
" style="fill:#ececec;opacity:0.5;stroke:#ececec;stroke-linejoin:miter;"/>
   </g>
  </g>
  <g id="axis3d_1">
   <g id="line2d_1">
    <path d="M 451.712769 497.045289 
L 758.773665 597.331377 
" style="fill:none;stroke:#000000;stroke-linecap:square;stroke-width:0.8;"/>
   </g>
   <g id="Line3DCollection_1">
    <path d="M 470.307571 503.118351 
L 649.844977 350.851443 
L 648.080353 132.16382 
" style="fill:none;stroke:#b0b0b0;stroke-width:0.8;"/>
    <path d="M 505.964145 514.763788 
L 683.595104 360.661273 
L 683.27062 141.083527 
" style="fill:none;stroke:#b0b0b0;stroke-width:0.8;"/>
    <path d="M 542.070521 526.556131 
L 717.735689 370.584593 
L 718.88561 150.110889 
" style="fill:none;stroke:#b0b0b0;stroke-width:0.8;"/>
    <path d="M 578.635265 538.498176 
L 752.273545 380.623385 
L 754.93306 159.247867 
" style="fill:none;stroke:#b0b0b0;stroke-width:0.8;"/>
    <path d="M 615.66716 550.592793 
L 787.215649 390.779675 
L 791.420893 168.496469 
" style="fill:none;stroke:#b0b0b0;stroke-width:0.8;"/>
    <path d="M 653.175218 562.842924 
L 822.569139 401.055538 
L 828.35723 177.858754 
" style="fill:none;stroke:#b0b0b0;stroke-width:0.8;"/>
    <path d="M 691.16868 575.251589 
L 858.341322 411.4531 
L 865.750391 187.33683 
" style="fill:none;stroke:#b0b0b0;stroke-width:0.8;"/>
    <path d="M 729.657032 587.821885 
L 894.539682 421.974534 
L 903.608904 196.932859 
" style="fill:none;stroke:#b0b0b0;stroke-width:0.8;"/>
   </g>
   <g id="xtick_1">
    <g id="line2d_2">
     <path d="M 471.870972 501.79242 
L 467.174059 505.775904 
" style="fill:none;stroke:#000000;stroke-linecap:square;stroke-width:0.8;"/>
    </g>
    <g id="text_1">
     <!-- −1.0 -->
     <g transform="translate(450.651449 526.397579)scale(0.1 -0.1)">
      <defs>
       <path d="M 10.59375 35.5 
L 73.1875 35.5 
L 73.1875 27.203125 
L 10.59375 27.203125 
z
" id="DejaVuSans-8722"/>
       <path d="M 12.40625 8.296875 
L 28.515625 8.296875 
L 28.515625 63.921875 
L 10.984375 60.40625 
L 10.984375 69.390625 
L 28.421875 72.90625 
L 38.28125 72.90625 
L 38.28125 8.296875 
L 54.390625 8.296875 
L 54.390625 0 
L 12.40625 0 
z
" id="DejaVuSans-49"/>
       <path d="M 10.6875 12.40625 
L 21 12.40625 
L 21 0 
L 10.6875 0 
z
" id="DejaVuSans-46"/>
       <path d="M 31.78125 66.40625 
Q 24.171875 66.40625 20.328125 58.90625 
Q 16.5 51.421875 16.5 36.375 
Q 16.5 21.390625 20.328125 13.890625 
Q 24.171875 6.390625 31.78125 6.390625 
Q 39.453125 6.390625 43.28125 13.890625 
Q 47.125 21.390625 47.125 36.375 
Q 47.125 51.421875 43.28125 58.90625 
Q 39.453125 66.40625 31.78125 66.40625 
z
M 31.78125 74.21875 
Q 44.046875 74.21875 50.515625 64.515625 
Q 56.984375 54.828125 56.984375 36.375 
Q 56.984375 17.96875 50.515625 8.265625 
Q 44.046875 -1.421875 31.78125 -1.421875 
Q 19.53125 -1.421875 13.0625 8.265625 
Q 6.59375 17.96875 6.59375 36.375 
Q 6.59375 54.828125 13.0625 64.515625 
Q 19.53125 74.21875 31.78125 74.21875 
z
" id="DejaVuSans-48"/>
      </defs>
      <use xlink:href="#DejaVuSans-8722"/>
      <use x="83.789062" xlink:href="#DejaVuSans-49"/>
      <use x="147.412109" xlink:href="#DejaVuSans-46"/>
      <use x="179.199219" xlink:href="#DejaVuSans-48"/>
     </g>
    </g>
   </g>
   <g id="xtick_2">
    <g id="line2d_3">
     <path d="M 507.511733 513.421189 
L 502.862286 517.454784 
" style="fill:none;stroke:#000000;stroke-linecap:square;stroke-width:0.8;"/>
    </g>
    <g id="text_2">
     <!-- −0.5 -->
     <g transform="translate(486.325643 538.162646)scale(0.1 -0.1)">
      <defs>
       <path d="M 10.796875 72.90625 
L 49.515625 72.90625 
L 49.515625 64.59375 
L 19.828125 64.59375 
L 19.828125 46.734375 
Q 21.96875 47.46875 24.109375 47.828125 
Q 26.265625 48.1875 28.421875 48.1875 
Q 40.625 48.1875 47.75 41.5 
Q 54.890625 34.8125 54.890625 23.390625 
Q 54.890625 11.625 47.5625 5.09375 
Q 40.234375 -1.421875 26.90625 -1.421875 
Q 22.3125 -1.421875 17.546875 -0.640625 
Q 12.796875 0.140625 7.71875 1.703125 
L 7.71875 11.625 
Q 12.109375 9.234375 16.796875 8.0625 
Q 21.484375 6.890625 26.703125 6.890625 
Q 35.15625 6.890625 40.078125 11.328125 
Q 45.015625 15.765625 45.015625 23.390625 
Q 45.015625 31 40.078125 35.4375 
Q 35.15625 39.890625 26.703125 39.890625 
Q 22.75 39.890625 18.8125 39.015625 
Q 14.890625 38.140625 10.796875 36.28125 
z
" id="DejaVuSans-53"/>
      </defs>
      <use xlink:href="#DejaVuSans-8722"/>
      <use x="83.789062" xlink:href="#DejaVuSans-48"/>
      <use x="147.412109" xlink:href="#DejaVuSans-46"/>
      <use x="179.199219" xlink:href="#DejaVuSans-53"/>
     </g>
    </g>
   </g>
   <g id="xtick_3">
    <g id="line2d_4">
     <path d="M 543.601771 525.196547 
L 539.001367 529.281205 
" style="fill:none;stroke:#000000;stroke-linecap:square;stroke-width:0.8;"/>
    </g>
    <g id="text_3">
     <!-- 0.0 -->
     <g transform="translate(526.640527 550.076398)scale(0.1 -0.1)">
      <use xlink:href="#DejaVuSans-48"/>
      <use x="63.623047" xlink:href="#DejaVuSans-46"/>
      <use x="95.410156" xlink:href="#DejaVuSans-48"/>
     </g>
    </g>
   </g>
   <g id="xtick_4">
    <g id="line2d_5">
     <path d="M 580.149636 537.121284 
L 575.5999 541.25798 
" style="fill:none;stroke:#000000;stroke-linecap:square;stroke-width:0.8;"/>
    </g>
    <g id="text_4">
     <!-- 0.5 -->
     <g transform="translate(563.225017 562.141674)scale(0.1 -0.1)">
      <use xlink:href="#DejaVuSans-48"/>
      <use x="63.623047" xlink:href="#DejaVuSans-46"/>
      <use x="95.410156" xlink:href="#DejaVuSans-53"/>
     </g>
    </g>
   </g>
   <g id="xtick_5">
    <g id="line2d_6">
     <path d="M 617.164096 549.19826 
L 612.666702 553.387995 
" style="fill:none;stroke:#000000;stroke-linecap:square;stroke-width:0.8;"/>
    </g>
    <g id="text_5">
     <!-- 1.0 -->
     <g transform="translate(600.277776 574.361381)scale(0.1 -0.1)">
      <use xlink:href="#DejaVuSans-49"/>
      <use x="63.623047" xlink:href="#DejaVuSans-46"/>
      <use x="95.410156" xlink:href="#DejaVuSans-48"/>
     </g>
    </g>
   </g>
   <g id="xtick_6">
    <g id="line2d_7">
     <path d="M 654.654142 561.43041 
L 650.210818 565.67421 
" style="fill:none;stroke:#000000;stroke-linecap:square;stroke-width:0.8;"/>
    </g>
    <g id="text_6">
     <!-- 1.5 -->
     <g transform="translate(637.807854 586.738504)scale(0.1 -0.1)">
      <use xlink:href="#DejaVuSans-49"/>
      <use x="63.623047" xlink:href="#DejaVuSans-46"/>
      <use x="95.410156" xlink:href="#DejaVuSans-53"/>
     </g>
    </g>
   </g>
   <g id="xtick_7">
    <g id="line2d_8">
     <path d="M 692.629001 573.820742 
L 688.241528 578.119661 
" style="fill:none;stroke:#000000;stroke-linecap:square;stroke-width:0.8;"/>
    </g>
    <g id="text_7">
     <!-- 2.0 -->
     <g transform="translate(675.824533 599.276104)scale(0.1 -0.1)">
      <defs>
       <path d="M 19.1875 8.296875 
L 53.609375 8.296875 
L 53.609375 0 
L 7.328125 0 
L 7.328125 8.296875 
Q 12.9375 14.109375 22.625 23.890625 
Q 32.328125 33.6875 34.8125 36.53125 
Q 39.546875 41.84375 41.421875 45.53125 
Q 43.3125 49.21875 43.3125 52.78125 
Q 43.3125 58.59375 39.234375 62.25 
Q 35.15625 65.921875 28.609375 65.921875 
Q 23.96875 65.921875 18.8125 64.3125 
Q 13.671875 62.703125 7.8125 59.421875 
L 7.8125 69.390625 
Q 13.765625 71.78125 18.9375 73 
Q 24.125 74.21875 28.421875 74.21875 
Q 39.75 74.21875 46.484375 68.546875 
Q 53.21875 62.890625 53.21875 53.421875 
Q 53.21875 48.921875 51.53125 44.890625 
Q 49.859375 40.875 45.40625 35.40625 
Q 44.1875 33.984375 37.640625 27.21875 
Q 31.109375 20.453125 19.1875 8.296875 
z
" id="DejaVuSans-50"/>
      </defs>
      <use xlink:href="#DejaVuSans-50"/>
      <use x="63.623047" xlink:href="#DejaVuSans-46"/>
      <use x="95.410156" xlink:href="#DejaVuSans-48"/>
     </g>
    </g>
   </g>
   <g id="xtick_8">
    <g id="line2d_9">
     <path d="M 731.098138 586.372347 
L 726.768353 590.727465 
" style="fill:none;stroke:#000000;stroke-linecap:square;stroke-width:0.8;"/>
    </g>
    <g id="text_8">
     <!-- 2.5 -->
     <g transform="translate(714.337339 611.977323)scale(0.1 -0.1)">
      <use xlink:href="#DejaVuSans-50"/>
      <use x="63.623047" xlink:href="#DejaVuSans-46"/>
      <use x="95.410156" xlink:href="#DejaVuSans-53"/>
     </g>
    </g>
   </g>
  </g>
  <g id="axis3d_2">
   <g id="line2d_10">
    <path d="M 921.897364 429.926332 
L 758.773665 597.331377 
" style="fill:none;stroke:#000000;stroke-linecap:square;stroke-width:0.8;"/>
   </g>
   <g id="Line3DCollection_2">
    <path d="M 453.63849 256.007501 
L 464.145465 486.623956 
L 770.054658 585.754303 
" style="fill:none;stroke:#b0b0b0;stroke-width:0.8;"/>
    <path d="M 475.708549 239.901777 
L 485.148055 469.019169 
L 789.096066 566.213134 
" style="fill:none;stroke:#b0b0b0;stroke-width:0.8;"/>
    <path d="M 497.34165 224.114926 
L 505.752868 451.747807 
L 807.757815 547.061589 
" style="fill:none;stroke:#b0b0b0;stroke-width:0.8;"/>
    <path d="M 518.550641 208.63757 
L 525.971098 434.800485 
L 826.051146 528.288131 
" style="fill:none;stroke:#b0b0b0;stroke-width:0.8;"/>
    <path d="M 539.347874 193.460696 
L 545.813524 418.16817 
L 843.986863 509.881673 
" style="fill:none;stroke:#b0b0b0;stroke-width:0.8;"/>
    <path d="M 559.745224 178.575639 
L 565.290527 401.84216 
L 861.57535 491.831558 
" style="fill:none;stroke:#b0b0b0;stroke-width:0.8;"/>
    <path d="M 579.754115 163.974062 
L 584.41211 385.81407 
L 878.826595 474.127537 
" style="fill:none;stroke:#b0b0b0;stroke-width:0.8;"/>
    <path d="M 599.385539 149.647943 
L 603.187912 370.07582 
L 895.750205 456.75975 
" style="fill:none;stroke:#b0b0b0;stroke-width:0.8;"/>
    <path d="M 618.650078 135.58956 
L 621.627231 354.619618 
L 912.355426 439.718709 
" style="fill:none;stroke:#b0b0b0;stroke-width:0.8;"/>
   </g>
   <g id="xtick_9">
    <g id="line2d_11">
     <path d="M 767.476752 584.918929 
L 775.217138 587.427213 
" style="fill:none;stroke:#000000;stroke-linecap:square;stroke-width:0.8;"/>
    </g>
    <g id="text_9">
     <!-- −1.00 -->
     <g transform="translate(767.608717 606.771953)scale(0.1 -0.1)">
      <use xlink:href="#DejaVuSans-8722"/>
      <use x="83.789062" xlink:href="#DejaVuSans-49"/>
      <use x="147.412109" xlink:href="#DejaVuSans-46"/>
      <use x="179.199219" xlink:href="#DejaVuSans-48"/>
      <use x="242.822266" xlink:href="#DejaVuSans-48"/>
     </g>
    </g>
   </g>
   <g id="xtick_10">
    <g id="line2d_12">
     <path d="M 786.535993 565.394495 
L 794.222766 567.852507 
" style="fill:none;stroke:#000000;stroke-linecap:square;stroke-width:0.8;"/>
    </g>
    <g id="text_10">
     <!-- −0.75 -->
     <g transform="translate(786.525917 587.08998)scale(0.1 -0.1)">
      <defs>
       <path d="M 8.203125 72.90625 
L 55.078125 72.90625 
L 55.078125 68.703125 
L 28.609375 0 
L 18.3125 0 
L 43.21875 64.59375 
L 8.203125 64.59375 
z
" id="DejaVuSans-55"/>
      </defs>
      <use xlink:href="#DejaVuSans-8722"/>
      <use x="83.789062" xlink:href="#DejaVuSans-48"/>
      <use x="147.412109" xlink:href="#DejaVuSans-46"/>
      <use x="179.199219" xlink:href="#DejaVuSans-55"/>
      <use x="242.822266" xlink:href="#DejaVuSans-53"/>
     </g>
    </g>
   </g>
   <g id="xtick_11">
    <g id="line2d_13">
     <path d="M 805.21538 546.259188 
L 812.849128 548.668425 
" style="fill:none;stroke:#000000;stroke-linecap:square;stroke-width:0.8;"/>
    </g>
    <g id="text_11">
     <!-- −0.50 -->
     <g transform="translate(805.065824 567.800551)scale(0.1 -0.1)">
      <use xlink:href="#DejaVuSans-8722"/>
      <use x="83.789062" xlink:href="#DejaVuSans-48"/>
      <use x="147.412109" xlink:href="#DejaVuSans-46"/>
      <use x="179.199219" xlink:href="#DejaVuSans-53"/>
      <use x="242.822266" xlink:href="#DejaVuSans-48"/>
     </g>
    </g>
   </g>
   <g id="xtick_12">
    <g id="line2d_14">
     <path d="M 823.526155 527.501489 
L 831.107464 529.863388 
" style="fill:none;stroke:#000000;stroke-linecap:square;stroke-width:0.8;"/>
    </g>
    <g id="text_12">
     <!-- −0.25 -->
     <g transform="translate(823.239616 548.892039)scale(0.1 -0.1)">
      <use xlink:href="#DejaVuSans-8722"/>
      <use x="83.789062" xlink:href="#DejaVuSans-48"/>
      <use x="147.412109" xlink:href="#DejaVuSans-46"/>
      <use x="179.199219" xlink:href="#DejaVuSans-50"/>
      <use x="242.822266" xlink:href="#DejaVuSans-53"/>
     </g>
    </g>
   </g>
   <g id="xtick_13">
    <g id="line2d_15">
     <path d="M 841.479123 509.110331 
L 849.008574 511.426274 
" style="fill:none;stroke:#000000;stroke-linecap:square;stroke-width:0.8;"/>
    </g>
    <g id="text_13">
     <!-- 0.00 -->
     <g transform="translate(845.247876 530.353271)scale(0.1 -0.1)">
      <use xlink:href="#DejaVuSans-48"/>
      <use x="63.623047" xlink:href="#DejaVuSans-46"/>
      <use x="95.410156" xlink:href="#DejaVuSans-48"/>
      <use x="159.033203" xlink:href="#DejaVuSans-48"/>
     </g>
    </g>
   </g>
   <g id="xtick_14">
    <g id="line2d_16">
     <path d="M 859.08467 491.075074 
L 866.56284 493.346389 
" style="fill:none;stroke:#000000;stroke-linecap:square;stroke-width:0.8;"/>
    </g>
    <g id="text_14">
     <!-- 0.25 -->
     <g transform="translate(862.721237 512.173506)scale(0.1 -0.1)">
      <use xlink:href="#DejaVuSans-48"/>
      <use x="63.623047" xlink:href="#DejaVuSans-46"/>
      <use x="95.410156" xlink:href="#DejaVuSans-50"/>
      <use x="159.033203" xlink:href="#DejaVuSans-53"/>
     </g>
    </g>
   </g>
   <g id="xtick_15">
    <g id="line2d_17">
     <path d="M 876.352784 473.385485 
L 883.780247 475.613449 
" style="fill:none;stroke:#000000;stroke-linecap:square;stroke-width:0.8;"/>
    </g>
    <g id="text_15">
     <!-- 0.50 -->
     <g transform="translate(879.859472 494.342416)scale(0.1 -0.1)">
      <use xlink:href="#DejaVuSans-48"/>
      <use x="63.623047" xlink:href="#DejaVuSans-46"/>
      <use x="95.410156" xlink:href="#DejaVuSans-53"/>
      <use x="159.033203" xlink:href="#DejaVuSans-48"/>
     </g>
    </g>
   </g>
   <g id="xtick_16">
    <g id="line2d_18">
     <path d="M 893.293075 456.031721 
L 900.670398 458.217565 
" style="fill:none;stroke:#000000;stroke-linecap:square;stroke-width:0.8;"/>
    </g>
    <g id="text_16">
     <!-- 0.75 -->
     <g transform="translate(896.672128 476.850067)scale(0.1 -0.1)">
      <use xlink:href="#DejaVuSans-48"/>
      <use x="63.623047" xlink:href="#DejaVuSans-46"/>
      <use x="95.410156" xlink:href="#DejaVuSans-55"/>
      <use x="159.033203" xlink:href="#DejaVuSans-53"/>
     </g>
    </g>
   </g>
   <g id="xtick_17">
    <g id="line2d_19">
     <path d="M 909.914789 439.00431 
L 917.242536 441.149215 
" style="fill:none;stroke:#000000;stroke-linecap:square;stroke-width:0.8;"/>
    </g>
    <g id="text_17">
     <!-- 1.00 -->
     <g transform="translate(913.168398 459.686895)scale(0.1 -0.1)">
      <use xlink:href="#DejaVuSans-49"/>
      <use x="63.623047" xlink:href="#DejaVuSans-46"/>
      <use x="95.410156" xlink:href="#DejaVuSans-48"/>
      <use x="159.033203" xlink:href="#DejaVuSans-48"/>
     </g>
    </g>
   </g>
  </g>
  <g id="axis3d_3">
   <g id="line2d_20">
    <path d="M 921.897364 429.926332 
L 932.234549 204.188626 
" style="fill:none;stroke:#000000;stroke-linecap:square;stroke-width:0.8;"/>
   </g>
   <g id="Line3DCollection_3">
    <path d="M 923.350027 398.203886 
L 631.877344 315.009778 
L 450.148421 464.560599 
" style="fill:none;stroke:#b0b0b0;stroke-width:0.8;"/>
    <path d="M 924.751221 367.605392 
L 631.536783 285.39369 
L 448.638798 433.212288 
" style="fill:none;stroke:#b0b0b0;stroke-width:0.8;"/>
    <path d="M 926.169428 336.635376 
L 631.192285 255.435272 
L 447.110142 401.468763 
" style="fill:none;stroke:#b0b0b0;stroke-width:0.8;"/>
    <path d="M 927.60496 305.287032 
L 630.843782 225.128553 
L 445.562092 369.322502 
" style="fill:none;stroke:#b0b0b0;stroke-width:0.8;"/>
    <path d="M 929.058136 273.553384 
L 630.491203 194.467424 
L 443.994276 336.765792 
" style="fill:none;stroke:#b0b0b0;stroke-width:0.8;"/>
    <path d="M 930.529283 241.427284 
L 630.134477 163.445632 
L 442.406314 303.790721 
" style="fill:none;stroke:#b0b0b0;stroke-width:0.8;"/>
    <path d="M 932.018738 208.901408 
L 629.773531 132.056776 
L 440.797814 270.389174 
" style="fill:none;stroke:#b0b0b0;stroke-width:0.8;"/>
   </g>
   <g id="xtick_18">
    <g id="line2d_21">
     <path d="M 920.903048 397.505453 
L 928.249842 399.602424 
" style="fill:none;stroke:#000000;stroke-linecap:square;stroke-width:0.8;"/>
    </g>
    <g id="text_18">
     <!-- 0.70 -->
     <g transform="translate(930.606727 403.223576)scale(0.1 -0.1)">
      <use xlink:href="#DejaVuSans-48"/>
      <use x="63.623047" xlink:href="#DejaVuSans-46"/>
      <use x="95.410156" xlink:href="#DejaVuSans-55"/>
      <use x="159.033203" xlink:href="#DejaVuSans-48"/>
     </g>
    </g>
   </g>
   <g id="xtick_19">
    <g id="line2d_22">
     <path d="M 922.288921 366.91501 
L 929.681751 368.987817 
" style="fill:none;stroke:#000000;stroke-linecap:square;stroke-width:0.8;"/>
    </g>
    <g id="text_19">
     <!-- 0.75 -->
     <g transform="translate(932.116651 372.654826)scale(0.1 -0.1)">
      <use xlink:href="#DejaVuSans-48"/>
      <use x="63.623047" xlink:href="#DejaVuSans-46"/>
      <use x="95.410156" xlink:href="#DejaVuSans-55"/>
      <use x="159.033203" xlink:href="#DejaVuSans-53"/>
     </g>
    </g>
   </g>
   <g id="xtick_20">
    <g id="line2d_23">
     <path d="M 923.691613 335.953293 
L 931.13106 338.001194 
" style="fill:none;stroke:#000000;stroke-linecap:square;stroke-width:0.8;"/>
    </g>
    <g id="text_20">
     <!-- 0.80 -->
     <g transform="translate(933.64488 341.715468)scale(0.1 -0.1)">
      <defs>
       <path d="M 31.78125 34.625 
Q 24.75 34.625 20.71875 30.859375 
Q 16.703125 27.09375 16.703125 20.515625 
Q 16.703125 13.921875 20.71875 10.15625 
Q 24.75 6.390625 31.78125 6.390625 
Q 38.8125 6.390625 42.859375 10.171875 
Q 46.921875 13.96875 46.921875 20.515625 
Q 46.921875 27.09375 42.890625 30.859375 
Q 38.875 34.625 31.78125 34.625 
z
M 21.921875 38.8125 
Q 15.578125 40.375 12.03125 44.71875 
Q 8.5 49.078125 8.5 55.328125 
Q 8.5 64.0625 14.71875 69.140625 
Q 20.953125 74.21875 31.78125 74.21875 
Q 42.671875 74.21875 48.875 69.140625 
Q 55.078125 64.0625 55.078125 55.328125 
Q 55.078125 49.078125 51.53125 44.71875 
Q 48 40.375 41.703125 38.8125 
Q 48.828125 37.15625 52.796875 32.3125 
Q 56.78125 27.484375 56.78125 20.515625 
Q 56.78125 9.90625 50.3125 4.234375 
Q 43.84375 -1.421875 31.78125 -1.421875 
Q 19.734375 -1.421875 13.25 4.234375 
Q 6.78125 9.90625 6.78125 20.515625 
Q 6.78125 27.484375 10.78125 32.3125 
Q 14.796875 37.15625 21.921875 38.8125 
z
M 18.3125 54.390625 
Q 18.3125 48.734375 21.84375 45.5625 
Q 25.390625 42.390625 31.78125 42.390625 
Q 38.140625 42.390625 41.71875 45.5625 
Q 45.3125 48.734375 45.3125 54.390625 
Q 45.3125 60.0625 41.71875 63.234375 
Q 38.140625 66.40625 31.78125 66.40625 
Q 25.390625 66.40625 21.84375 63.234375 
Q 18.3125 60.0625 18.3125 54.390625 
z
" id="DejaVuSans-56"/>
      </defs>
      <use xlink:href="#DejaVuSans-48"/>
      <use x="63.623047" xlink:href="#DejaVuSans-46"/>
      <use x="95.410156" xlink:href="#DejaVuSans-56"/>
      <use x="159.033203" xlink:href="#DejaVuSans-48"/>
     </g>
    </g>
   </g>
   <g id="xtick_21">
    <g id="line2d_24">
     <path d="M 925.111434 304.613503 
L 932.598088 306.635731 
" style="fill:none;stroke:#000000;stroke-linecap:square;stroke-width:0.8;"/>
    </g>
    <g id="text_21">
     <!-- 0.85 -->
     <g transform="translate(935.19175 310.398723)scale(0.1 -0.1)">
      <use xlink:href="#DejaVuSans-48"/>
      <use x="63.623047" xlink:href="#DejaVuSans-46"/>
      <use x="95.410156" xlink:href="#DejaVuSans-56"/>
      <use x="159.033203" xlink:href="#DejaVuSans-53"/>
     </g>
    </g>
   </g>
   <g id="xtick_22">
    <g id="line2d_25">
     <path d="M 926.548699 272.888671 
L 934.083162 274.884439 
" style="fill:none;stroke:#000000;stroke-linecap:square;stroke-width:0.8;"/>
    </g>
    <g id="text_22">
     <!-- 0.90 -->
     <g transform="translate(936.757604 278.697642)scale(0.1 -0.1)">
      <defs>
       <path d="M 10.984375 1.515625 
L 10.984375 10.5 
Q 14.703125 8.734375 18.5 7.8125 
Q 22.3125 6.890625 25.984375 6.890625 
Q 35.75 6.890625 40.890625 13.453125 
Q 46.046875 20.015625 46.78125 33.40625 
Q 43.953125 29.203125 39.59375 26.953125 
Q 35.25 24.703125 29.984375 24.703125 
Q 19.046875 24.703125 12.671875 31.3125 
Q 6.296875 37.9375 6.296875 49.421875 
Q 6.296875 60.640625 12.9375 67.421875 
Q 19.578125 74.21875 30.609375 74.21875 
Q 43.265625 74.21875 49.921875 64.515625 
Q 56.59375 54.828125 56.59375 36.375 
Q 56.59375 19.140625 48.40625 8.859375 
Q 40.234375 -1.421875 26.421875 -1.421875 
Q 22.703125 -1.421875 18.890625 -0.6875 
Q 15.09375 0.046875 10.984375 1.515625 
z
M 30.609375 32.421875 
Q 37.25 32.421875 41.125 36.953125 
Q 45.015625 41.5 45.015625 49.421875 
Q 45.015625 57.28125 41.125 61.84375 
Q 37.25 66.40625 30.609375 66.40625 
Q 23.96875 66.40625 20.09375 61.84375 
Q 16.21875 57.28125 16.21875 49.421875 
Q 16.21875 41.5 20.09375 36.953125 
Q 23.96875 32.421875 30.609375 32.421875 
z
" id="DejaVuSans-57"/>
      </defs>
      <use xlink:href="#DejaVuSans-48"/>
      <use x="63.623047" xlink:href="#DejaVuSans-46"/>
      <use x="95.410156" xlink:href="#DejaVuSans-57"/>
      <use x="159.033203" xlink:href="#DejaVuSans-48"/>
     </g>
    </g>
   </g>
   <g id="xtick_23">
    <g id="line2d_26">
     <path d="M 928.003732 240.771658 
L 935.586618 242.740154 
" style="fill:none;stroke:#000000;stroke-linecap:square;stroke-width:0.8;"/>
    </g>
    <g id="text_23">
     <!-- 0.95 -->
     <g transform="translate(938.342794 246.605107)scale(0.1 -0.1)">
      <use xlink:href="#DejaVuSans-48"/>
      <use x="63.623047" xlink:href="#DejaVuSans-46"/>
      <use x="95.410156" xlink:href="#DejaVuSans-57"/>
      <use x="159.033203" xlink:href="#DejaVuSans-53"/>
     </g>
    </g>
   </g>
   <g id="xtick_24">
    <g id="line2d_27">
     <path d="M 929.476863 208.255146 
L 937.108797 210.195535 
" style="fill:none;stroke:#000000;stroke-linecap:square;stroke-width:0.8;"/>
    </g>
    <g id="text_24">
     <!-- 1.00 -->
     <g transform="translate(939.947679 214.113822)scale(0.1 -0.1)">
      <use xlink:href="#DejaVuSans-49"/>
      <use x="63.623047" xlink:href="#DejaVuSans-46"/>
      <use x="95.410156" xlink:href="#DejaVuSans-48"/>
      <use x="159.033203" xlink:href="#DejaVuSans-48"/>
     </g>
    </g>
   </g>
  </g>
  <g id="axes_1">
   <g id="line2d_28">
    <path clip-path="url(#p29714d05f8)" d="M 863.923884 452.501102 
L 863.251368 457.600931 
L 862.76075 457.781124 
L 862.657913 453.993313 
L 863.037423 447.114916 
L 863.853584 437.947886 
L 866.108879 415.429223 
L 867.039415 403.175405 
L 867.442566 390.862596 
L 867.016049 378.867697 
L 865.48132 367.509848 
L 862.604783 357.042199 
L 858.216476 347.638879 
L 852.225456 339.383533 
L 844.631021 332.266093 
L 835.528836 326.192678 
L 825.111008 321.009593 
L 813.659157 316.53681 
L 801.529553 312.60018 
L 789.129368 309.047392 
L 754.409363 299.626175 
L 744.804434 296.755909 
L 736.568654 294.058613 
L 729.807019 291.583769 
L 724.545521 289.366844 
L 720.741421 287.416522 
L 718.296051 285.711939 
L 717.068656 284.207707 
L 716.89008 282.843357 
L 717.575472 281.553964 
L 718.935457 280.279488 
L 720.78544 278.971398 
L 727.640942 274.584875 
L 729.915819 272.950607 
L 732.019052 271.245787 
L 733.884574 269.487234 
L 735.467006 267.692614 
L 736.739394 265.878455 
L 737.690554 264.058983 
L 738.322241 262.245664 
L 738.646306 260.447264 
L 738.681975 258.670253 
L 738.453362 256.919352 
L 737.987274 255.198103 
L 737.311363 253.509367 
L 736.452632 251.855708 
L 735.436296 250.23964 
L 734.284976 248.663763 
L 731.652177 245.64359 
L 728.670553 242.817892 
L 725.406326 240.208971 
L 721.885472 237.836734 
L 718.107089 235.717529 
L 714.056621 233.863832 
L 709.716672 232.284429 
L 705.074444 230.984886 
L 700.12576 229.968119 
L 694.876234 229.235012 
L 689.340467 228.784992 
L 683.540125 228.616521 
L 677.501636 228.727458 
L 671.254053 229.115269 
L 664.827366 229.777102 
L 658.251383 230.709747 
L 651.555148 231.90954 
L 644.76679 233.372234 
L 637.913648 235.092869 
L 631.022548 237.065673 
L 624.120107 239.283976 
L 617.232992 241.74017 
L 610.388092 244.425676 
L 603.612596 247.330944 
L 596.933972 250.445463 
L 590.379887 253.757772 
L 583.978074 257.255486 
L 577.756175 260.92532 
L 571.741578 264.75312 
L 565.961257 268.723888 
L 560.441619 272.821822 
L 555.208368 277.03035 
L 550.286364 281.33218 
L 545.6995 285.709345 
L 541.470573 290.14326 
L 537.621155 294.614792 
L 534.171467 299.104324 
L 531.140242 303.591836 
L 528.544587 308.056993 
L 526.399854 312.479237 
L 524.719496 316.837883 
L 523.514944 321.112233 
L 523.094082 323.21135 
L 522.795476 325.281681 
L 522.61993 327.320684 
L 522.568101 329.325838 
L 522.640493 331.294647 
L 522.837457 333.224646 
L 523.159188 335.1134 
L 523.605719 336.958512 
L 524.176924 338.757626 
L 524.872515 340.508429 
L 525.692039 342.20866 
L 526.634876 343.856108 
L 527.700243 345.448621 
L 528.887187 346.984106 
L 530.194592 348.460536 
L 531.62117 349.87595 
L 533.165471 351.228464 
L 534.825879 352.516264 
L 536.600611 353.73762 
L 538.487725 354.890881 
L 540.485115 355.974486 
L 542.590518 356.98696 
L 547.115536 358.793081 
L 552.041609 360.299346 
L 557.345237 361.497457 
L 563.00072 362.380783 
L 568.980313 362.944421 
L 575.2544 363.185235 
L 581.791683 363.101883 
L 588.559391 362.69483 
L 595.523495 361.966343 
L 602.648941 360.920469 
L 609.899881 359.563007 
L 617.239923 357.901451 
L 624.632365 355.944933 
L 632.040444 353.704144 
L 639.42757 351.191247 
L 646.757562 348.419777 
L 653.994868 345.404538 
L 661.104777 342.161486 
L 668.053624 338.707607 
L 674.808965 335.060796 
L 681.339754 331.239727 
L 687.616492 327.263726 
L 693.61136 323.15264 
L 699.298334 318.926713 
L 702.018745 316.777088 
L 702.018745 316.777088 
" style="fill:none;stroke:#0000ff;stroke-linecap:square;stroke-width:1.5;"/>
   </g>
   <g id="line2d_29">
    <path clip-path="url(#p29714d05f8)" d="M 863.923884 452.501102 
L 873.049466 237.400337 
L 873.049466 237.400337 
L 705.823043 243.014496 
L 710.840466 238.731988 
L 715.474238 234.401605 
L 719.706436 230.043394 
L 723.521293 225.677209 
L 726.905205 221.322616 
L 729.846728 216.998809 
L 732.336565 212.724533 
L 734.367537 208.518009 
L 735.934544 204.396875 
L 737.034523 200.378128 
L 737.666391 196.478071 
L 737.806973 194.577448 
L 737.830989 192.712278 
L 737.738835 190.884385 
L 737.531018 189.095547 
L 737.208155 187.347487 
L 736.770971 185.641879 
L 736.220295 183.980342 
L 735.557062 182.364444 
L 734.782305 180.795698 
L 733.897157 179.275565 
L 732.902848 177.805448 
L 731.800701 176.386697 
L 730.592132 175.020609 
L 729.278646 173.70842 
L 726.343378 171.250421 
L 723.00865 169.021491 
L 719.289509 167.029522 
L 715.202233 165.2815 
L 710.764262 163.783503 
L 705.994137 162.540703 
L 700.911439 161.557365 
L 695.536727 160.836845 
L 689.891484 160.381594 
L 683.998058 160.193155 
L 677.879609 160.272167 
L 671.560052 160.618362 
L 665.064007 161.230567 
L 658.41674 162.106703 
L 651.644112 163.243783 
L 644.772521 164.637916 
L 637.828844 166.284301 
L 630.840376 168.177229 
L 623.83477 170.310086 
L 616.839968 172.675352 
L 609.884128 175.264602 
L 602.995554 178.068515 
L 596.202612 181.076876 
L 589.533645 184.278586 
L 583.01688 187.661676 
L 576.680336 191.21332 
L 570.551713 194.919855 
L 564.658287 198.766805 
L 559.026795 202.738909 
L 553.683308 206.820158 
L 548.653106 210.993833 
L 543.960547 215.242553 
L 539.628929 219.548327 
L 535.680347 223.892617 
L 532.135553 228.256405 
L 529.01381 232.620265 
L 526.332746 236.964451 
L 524.108216 241.268983 
L 522.354156 245.513746 
L 521.082452 249.67859 
L 520.630607 251.724765 
L 520.302814 253.743444 
L 520.099928 255.732152 
L 520.022652 257.688427 
L 520.071535 259.609835 
L 520.24697 261.493968 
L 520.549193 263.338446 
L 520.978274 265.140928 
L 521.534125 266.89911 
L 522.216488 268.610729 
L 523.02494 270.273572 
L 523.958889 271.885474 
L 525.017576 273.444326 
L 526.200069 274.948077 
L 527.505268 276.394738 
L 528.931901 277.782386 
L 530.478529 279.109167 
L 532.143541 280.373302 
L 533.925161 281.573086 
L 535.821446 282.706897 
L 537.830285 283.773194 
L 542.176391 285.69752 
L 546.943418 287.335523 
L 552.108852 288.678178 
L 557.647851 289.718049 
L 563.533392 290.449357 
L 569.736431 290.868024 
L 576.226094 290.971711 
L 582.969876 290.759839 
L 589.933857 290.233592 
L 597.082931 289.395908 
L 604.381046 288.251453 
L 611.791447 286.806581 
L 619.276922 285.069281 
L 626.800056 283.049107 
L 634.323472 280.7571 
L 641.810076 278.205699 
L 649.223292 275.408638 
L 656.52728 272.380839 
L 663.687152 269.138297 
L 670.669169 265.697959 
L 677.440921 262.077603 
L 683.971492 258.295709 
L 690.231608 254.371337 
L 696.193763 250.323996 
L 699.055021 248.260403 
L 699.055021 248.260403 
" style="fill:none;stroke:#ff0000;stroke-linecap:square;stroke-width:1.5;"/>
   </g>
   <g id="legend_1">
    <g id="patch_6">
     <path d="M 740.905887 122.54665 
L 950.0762 122.54665 
Q 952.0762 122.54665 952.0762 120.54665 
L 952.0762 92.1904 
Q 952.0762 90.1904 950.0762 90.1904 
L 740.905887 90.1904 
Q 738.905887 90.1904 738.905887 92.1904 
L 738.905887 120.54665 
Q 738.905887 122.54665 740.905887 122.54665 
z
" style="fill:#ffffff;opacity:0.8;stroke:#cccccc;stroke-linejoin:miter;"/>
    </g>
    <g id="line2d_30">
     <path d="M 742.905887 98.288837 
L 762.905887 98.288837 
" style="fill:none;stroke:#0000ff;stroke-linecap:square;stroke-width:1.5;"/>
    </g>
    <g id="line2d_31"/>
    <g id="text_25">
     <!-- trajectory with parameter:0,0,-1.92 -->
     <g transform="translate(770.905887 101.788837)scale(0.1 -0.1)">
      <defs>
       <path d="M 18.3125 70.21875 
L 18.3125 54.6875 
L 36.8125 54.6875 
L 36.8125 47.703125 
L 18.3125 47.703125 
L 18.3125 18.015625 
Q 18.3125 11.328125 20.140625 9.421875 
Q 21.96875 7.515625 27.59375 7.515625 
L 36.8125 7.515625 
L 36.8125 0 
L 27.59375 0 
Q 17.1875 0 13.234375 3.875 
Q 9.28125 7.765625 9.28125 18.015625 
L 9.28125 47.703125 
L 2.6875 47.703125 
L 2.6875 54.6875 
L 9.28125 54.6875 
L 9.28125 70.21875 
z
" id="DejaVuSans-116"/>
       <path d="M 41.109375 46.296875 
Q 39.59375 47.171875 37.8125 47.578125 
Q 36.03125 48 33.890625 48 
Q 26.265625 48 22.1875 43.046875 
Q 18.109375 38.09375 18.109375 28.8125 
L 18.109375 0 
L 9.078125 0 
L 9.078125 54.6875 
L 18.109375 54.6875 
L 18.109375 46.1875 
Q 20.953125 51.171875 25.484375 53.578125 
Q 30.03125 56 36.53125 56 
Q 37.453125 56 38.578125 55.875 
Q 39.703125 55.765625 41.0625 55.515625 
z
" id="DejaVuSans-114"/>
       <path d="M 34.28125 27.484375 
Q 23.390625 27.484375 19.1875 25 
Q 14.984375 22.515625 14.984375 16.5 
Q 14.984375 11.71875 18.140625 8.90625 
Q 21.296875 6.109375 26.703125 6.109375 
Q 34.1875 6.109375 38.703125 11.40625 
Q 43.21875 16.703125 43.21875 25.484375 
L 43.21875 27.484375 
z
M 52.203125 31.203125 
L 52.203125 0 
L 43.21875 0 
L 43.21875 8.296875 
Q 40.140625 3.328125 35.546875 0.953125 
Q 30.953125 -1.421875 24.3125 -1.421875 
Q 15.921875 -1.421875 10.953125 3.296875 
Q 6 8.015625 6 15.921875 
Q 6 25.140625 12.171875 29.828125 
Q 18.359375 34.515625 30.609375 34.515625 
L 43.21875 34.515625 
L 43.21875 35.40625 
Q 43.21875 41.609375 39.140625 45 
Q 35.0625 48.390625 27.6875 48.390625 
Q 23 48.390625 18.546875 47.265625 
Q 14.109375 46.140625 10.015625 43.890625 
L 10.015625 52.203125 
Q 14.9375 54.109375 19.578125 55.046875 
Q 24.21875 56 28.609375 56 
Q 40.484375 56 46.34375 49.84375 
Q 52.203125 43.703125 52.203125 31.203125 
z
" id="DejaVuSans-97"/>
       <path d="M 9.421875 54.6875 
L 18.40625 54.6875 
L 18.40625 -0.984375 
Q 18.40625 -11.421875 14.421875 -16.109375 
Q 10.453125 -20.796875 1.609375 -20.796875 
L -1.8125 -20.796875 
L -1.8125 -13.1875 
L 0.59375 -13.1875 
Q 5.71875 -13.1875 7.5625 -10.8125 
Q 9.421875 -8.453125 9.421875 -0.984375 
z
M 9.421875 75.984375 
L 18.40625 75.984375 
L 18.40625 64.59375 
L 9.421875 64.59375 
z
" id="DejaVuSans-106"/>
       <path d="M 56.203125 29.59375 
L 56.203125 25.203125 
L 14.890625 25.203125 
Q 15.484375 15.921875 20.484375 11.0625 
Q 25.484375 6.203125 34.421875 6.203125 
Q 39.59375 6.203125 44.453125 7.46875 
Q 49.3125 8.734375 54.109375 11.28125 
L 54.109375 2.78125 
Q 49.265625 0.734375 44.1875 -0.34375 
Q 39.109375 -1.421875 33.890625 -1.421875 
Q 20.796875 -1.421875 13.15625 6.1875 
Q 5.515625 13.8125 5.515625 26.8125 
Q 5.515625 40.234375 12.765625 48.109375 
Q 20.015625 56 32.328125 56 
Q 43.359375 56 49.78125 48.890625 
Q 56.203125 41.796875 56.203125 29.59375 
z
M 47.21875 32.234375 
Q 47.125 39.59375 43.09375 43.984375 
Q 39.0625 48.390625 32.421875 48.390625 
Q 24.90625 48.390625 20.390625 44.140625 
Q 15.875 39.890625 15.1875 32.171875 
z
" id="DejaVuSans-101"/>
       <path d="M 48.78125 52.59375 
L 48.78125 44.1875 
Q 44.96875 46.296875 41.140625 47.34375 
Q 37.3125 48.390625 33.40625 48.390625 
Q 24.65625 48.390625 19.8125 42.84375 
Q 14.984375 37.3125 14.984375 27.296875 
Q 14.984375 17.28125 19.8125 11.734375 
Q 24.65625 6.203125 33.40625 6.203125 
Q 37.3125 6.203125 41.140625 7.25 
Q 44.96875 8.296875 48.78125 10.40625 
L 48.78125 2.09375 
Q 45.015625 0.34375 40.984375 -0.53125 
Q 36.96875 -1.421875 32.421875 -1.421875 
Q 20.0625 -1.421875 12.78125 6.34375 
Q 5.515625 14.109375 5.515625 27.296875 
Q 5.515625 40.671875 12.859375 48.328125 
Q 20.21875 56 33.015625 56 
Q 37.15625 56 41.109375 55.140625 
Q 45.0625 54.296875 48.78125 52.59375 
z
" id="DejaVuSans-99"/>
       <path d="M 30.609375 48.390625 
Q 23.390625 48.390625 19.1875 42.75 
Q 14.984375 37.109375 14.984375 27.296875 
Q 14.984375 17.484375 19.15625 11.84375 
Q 23.34375 6.203125 30.609375 6.203125 
Q 37.796875 6.203125 41.984375 11.859375 
Q 46.1875 17.53125 46.1875 27.296875 
Q 46.1875 37.015625 41.984375 42.703125 
Q 37.796875 48.390625 30.609375 48.390625 
z
M 30.609375 56 
Q 42.328125 56 49.015625 48.375 
Q 55.71875 40.765625 55.71875 27.296875 
Q 55.71875 13.875 49.015625 6.21875 
Q 42.328125 -1.421875 30.609375 -1.421875 
Q 18.84375 -1.421875 12.171875 6.21875 
Q 5.515625 13.875 5.515625 27.296875 
Q 5.515625 40.765625 12.171875 48.375 
Q 18.84375 56 30.609375 56 
z
" id="DejaVuSans-111"/>
       <path d="M 32.171875 -5.078125 
Q 28.375 -14.84375 24.75 -17.8125 
Q 21.140625 -20.796875 15.09375 -20.796875 
L 7.90625 -20.796875 
L 7.90625 -13.28125 
L 13.1875 -13.28125 
Q 16.890625 -13.28125 18.9375 -11.515625 
Q 21 -9.765625 23.484375 -3.21875 
L 25.09375 0.875 
L 2.984375 54.6875 
L 12.5 54.6875 
L 29.59375 11.921875 
L 46.6875 54.6875 
L 56.203125 54.6875 
z
" id="DejaVuSans-121"/>
       <path id="DejaVuSans-32"/>
       <path d="M 4.203125 54.6875 
L 13.1875 54.6875 
L 24.421875 12.015625 
L 35.59375 54.6875 
L 46.1875 54.6875 
L 57.421875 12.015625 
L 68.609375 54.6875 
L 77.59375 54.6875 
L 63.28125 0 
L 52.6875 0 
L 40.921875 44.828125 
L 29.109375 0 
L 18.5 0 
z
" id="DejaVuSans-119"/>
       <path d="M 9.421875 54.6875 
L 18.40625 54.6875 
L 18.40625 0 
L 9.421875 0 
z
M 9.421875 75.984375 
L 18.40625 75.984375 
L 18.40625 64.59375 
L 9.421875 64.59375 
z
" id="DejaVuSans-105"/>
       <path d="M 54.890625 33.015625 
L 54.890625 0 
L 45.90625 0 
L 45.90625 32.71875 
Q 45.90625 40.484375 42.875 44.328125 
Q 39.84375 48.1875 33.796875 48.1875 
Q 26.515625 48.1875 22.3125 43.546875 
Q 18.109375 38.921875 18.109375 30.90625 
L 18.109375 0 
L 9.078125 0 
L 9.078125 75.984375 
L 18.109375 75.984375 
L 18.109375 46.1875 
Q 21.34375 51.125 25.703125 53.5625 
Q 30.078125 56 35.796875 56 
Q 45.21875 56 50.046875 50.171875 
Q 54.890625 44.34375 54.890625 33.015625 
z
" id="DejaVuSans-104"/>
       <path d="M 18.109375 8.203125 
L 18.109375 -20.796875 
L 9.078125 -20.796875 
L 9.078125 54.6875 
L 18.109375 54.6875 
L 18.109375 46.390625 
Q 20.953125 51.265625 25.265625 53.625 
Q 29.59375 56 35.59375 56 
Q 45.5625 56 51.78125 48.09375 
Q 58.015625 40.1875 58.015625 27.296875 
Q 58.015625 14.40625 51.78125 6.484375 
Q 45.5625 -1.421875 35.59375 -1.421875 
Q 29.59375 -1.421875 25.265625 0.953125 
Q 20.953125 3.328125 18.109375 8.203125 
z
M 48.6875 27.296875 
Q 48.6875 37.203125 44.609375 42.84375 
Q 40.53125 48.484375 33.40625 48.484375 
Q 26.265625 48.484375 22.1875 42.84375 
Q 18.109375 37.203125 18.109375 27.296875 
Q 18.109375 17.390625 22.1875 11.75 
Q 26.265625 6.109375 33.40625 6.109375 
Q 40.53125 6.109375 44.609375 11.75 
Q 48.6875 17.390625 48.6875 27.296875 
z
" id="DejaVuSans-112"/>
       <path d="M 52 44.1875 
Q 55.375 50.25 60.0625 53.125 
Q 64.75 56 71.09375 56 
Q 79.640625 56 84.28125 50.015625 
Q 88.921875 44.046875 88.921875 33.015625 
L 88.921875 0 
L 79.890625 0 
L 79.890625 32.71875 
Q 79.890625 40.578125 77.09375 44.375 
Q 74.3125 48.1875 68.609375 48.1875 
Q 61.625 48.1875 57.5625 43.546875 
Q 53.515625 38.921875 53.515625 30.90625 
L 53.515625 0 
L 44.484375 0 
L 44.484375 32.71875 
Q 44.484375 40.625 41.703125 44.40625 
Q 38.921875 48.1875 33.109375 48.1875 
Q 26.21875 48.1875 22.15625 43.53125 
Q 18.109375 38.875 18.109375 30.90625 
L 18.109375 0 
L 9.078125 0 
L 9.078125 54.6875 
L 18.109375 54.6875 
L 18.109375 46.1875 
Q 21.1875 51.21875 25.484375 53.609375 
Q 29.78125 56 35.6875 56 
Q 41.65625 56 45.828125 52.96875 
Q 50 49.953125 52 44.1875 
z
" id="DejaVuSans-109"/>
       <path d="M 11.71875 12.40625 
L 22.015625 12.40625 
L 22.015625 0 
L 11.71875 0 
z
M 11.71875 51.703125 
L 22.015625 51.703125 
L 22.015625 39.3125 
L 11.71875 39.3125 
z
" id="DejaVuSans-58"/>
       <path d="M 11.71875 12.40625 
L 22.015625 12.40625 
L 22.015625 4 
L 14.015625 -11.625 
L 7.71875 -11.625 
L 11.71875 4 
z
" id="DejaVuSans-44"/>
       <path d="M 4.890625 31.390625 
L 31.203125 31.390625 
L 31.203125 23.390625 
L 4.890625 23.390625 
z
" id="DejaVuSans-45"/>
      </defs>
      <use xlink:href="#DejaVuSans-116"/>
      <use x="39.208984" xlink:href="#DejaVuSans-114"/>
      <use x="80.322266" xlink:href="#DejaVuSans-97"/>
      <use x="141.601562" xlink:href="#DejaVuSans-106"/>
      <use x="169.384766" xlink:href="#DejaVuSans-101"/>
      <use x="230.908203" xlink:href="#DejaVuSans-99"/>
      <use x="285.888672" xlink:href="#DejaVuSans-116"/>
      <use x="325.097656" xlink:href="#DejaVuSans-111"/>
      <use x="386.279297" xlink:href="#DejaVuSans-114"/>
      <use x="427.392578" xlink:href="#DejaVuSans-121"/>
      <use x="486.572266" xlink:href="#DejaVuSans-32"/>
      <use x="518.359375" xlink:href="#DejaVuSans-119"/>
      <use x="600.146484" xlink:href="#DejaVuSans-105"/>
      <use x="627.929688" xlink:href="#DejaVuSans-116"/>
      <use x="667.138672" xlink:href="#DejaVuSans-104"/>
      <use x="730.517578" xlink:href="#DejaVuSans-32"/>
      <use x="762.304688" xlink:href="#DejaVuSans-112"/>
      <use x="825.78125" xlink:href="#DejaVuSans-97"/>
      <use x="887.060547" xlink:href="#DejaVuSans-114"/>
      <use x="928.173828" xlink:href="#DejaVuSans-97"/>
      <use x="989.453125" xlink:href="#DejaVuSans-109"/>
      <use x="1086.865234" xlink:href="#DejaVuSans-101"/>
      <use x="1148.388672" xlink:href="#DejaVuSans-116"/>
      <use x="1187.597656" xlink:href="#DejaVuSans-101"/>
      <use x="1249.121094" xlink:href="#DejaVuSans-114"/>
      <use x="1288.484375" xlink:href="#DejaVuSans-58"/>
      <use x="1322.175781" xlink:href="#DejaVuSans-48"/>
      <use x="1385.798828" xlink:href="#DejaVuSans-44"/>
      <use x="1417.585938" xlink:href="#DejaVuSans-48"/>
      <use x="1481.208984" xlink:href="#DejaVuSans-44"/>
      <use x="1512.996094" xlink:href="#DejaVuSans-45"/>
      <use x="1549.080078" xlink:href="#DejaVuSans-49"/>
      <use x="1612.703125" xlink:href="#DejaVuSans-46"/>
      <use x="1644.490234" xlink:href="#DejaVuSans-57"/>
      <use x="1708.113281" xlink:href="#DejaVuSans-50"/>
     </g>
    </g>
    <g id="line2d_32">
     <path d="M 742.905887 112.966962 
L 762.905887 112.966962 
" style="fill:none;stroke:#ff0000;stroke-linecap:square;stroke-width:1.5;"/>
    </g>
    <g id="line2d_33"/>
    <g id="text_26">
     <!-- original trajectory -->
     <g transform="translate(770.905887 116.466962)scale(0.1 -0.1)">
      <defs>
       <path d="M 45.40625 27.984375 
Q 45.40625 37.75 41.375 43.109375 
Q 37.359375 48.484375 30.078125 48.484375 
Q 22.859375 48.484375 18.828125 43.109375 
Q 14.796875 37.75 14.796875 27.984375 
Q 14.796875 18.265625 18.828125 12.890625 
Q 22.859375 7.515625 30.078125 7.515625 
Q 37.359375 7.515625 41.375 12.890625 
Q 45.40625 18.265625 45.40625 27.984375 
z
M 54.390625 6.78125 
Q 54.390625 -7.171875 48.1875 -13.984375 
Q 42 -20.796875 29.203125 -20.796875 
Q 24.46875 -20.796875 20.265625 -20.09375 
Q 16.0625 -19.390625 12.109375 -17.921875 
L 12.109375 -9.1875 
Q 16.0625 -11.328125 19.921875 -12.34375 
Q 23.78125 -13.375 27.78125 -13.375 
Q 36.625 -13.375 41.015625 -8.765625 
Q 45.40625 -4.15625 45.40625 5.171875 
L 45.40625 9.625 
Q 42.625 4.78125 38.28125 2.390625 
Q 33.9375 0 27.875 0 
Q 17.828125 0 11.671875 7.65625 
Q 5.515625 15.328125 5.515625 27.984375 
Q 5.515625 40.671875 11.671875 48.328125 
Q 17.828125 56 27.875 56 
Q 33.9375 56 38.28125 53.609375 
Q 42.625 51.21875 45.40625 46.390625 
L 45.40625 54.6875 
L 54.390625 54.6875 
z
" id="DejaVuSans-103"/>
       <path d="M 54.890625 33.015625 
L 54.890625 0 
L 45.90625 0 
L 45.90625 32.71875 
Q 45.90625 40.484375 42.875 44.328125 
Q 39.84375 48.1875 33.796875 48.1875 
Q 26.515625 48.1875 22.3125 43.546875 
Q 18.109375 38.921875 18.109375 30.90625 
L 18.109375 0 
L 9.078125 0 
L 9.078125 54.6875 
L 18.109375 54.6875 
L 18.109375 46.1875 
Q 21.34375 51.125 25.703125 53.5625 
Q 30.078125 56 35.796875 56 
Q 45.21875 56 50.046875 50.171875 
Q 54.890625 44.34375 54.890625 33.015625 
z
" id="DejaVuSans-110"/>
       <path d="M 9.421875 75.984375 
L 18.40625 75.984375 
L 18.40625 0 
L 9.421875 0 
z
" id="DejaVuSans-108"/>
      </defs>
      <use xlink:href="#DejaVuSans-111"/>
      <use x="61.181641" xlink:href="#DejaVuSans-114"/>
      <use x="102.294922" xlink:href="#DejaVuSans-105"/>
      <use x="130.078125" xlink:href="#DejaVuSans-103"/>
      <use x="193.554688" xlink:href="#DejaVuSans-105"/>
      <use x="221.337891" xlink:href="#DejaVuSans-110"/>
      <use x="284.716797" xlink:href="#DejaVuSans-97"/>
      <use x="345.996094" xlink:href="#DejaVuSans-108"/>
      <use x="373.779297" xlink:href="#DejaVuSans-32"/>
      <use x="405.566406" xlink:href="#DejaVuSans-116"/>
      <use x="444.775391" xlink:href="#DejaVuSans-114"/>
      <use x="485.888672" xlink:href="#DejaVuSans-97"/>
      <use x="547.167969" xlink:href="#DejaVuSans-106"/>
      <use x="574.951172" xlink:href="#DejaVuSans-101"/>
      <use x="636.474609" xlink:href="#DejaVuSans-99"/>
      <use x="691.455078" xlink:href="#DejaVuSans-116"/>
      <use x="730.664062" xlink:href="#DejaVuSans-111"/>
      <use x="791.845703" xlink:href="#DejaVuSans-114"/>
      <use x="832.958984" xlink:href="#DejaVuSans-121"/>
     </g>
    </g>
   </g>
  </g>
 </g>
 <defs>
  <clipPath id="p29714d05f8">
   <rect height="546.6384" width="546.6384" x="410.4378" y="85.1904"/>
  </clipPath>
 </defs>
</svg>
